<?xml version="1.0" encoding="utf-8"?>
<!-- Generator: Adobe Illustrator 16.0.0, SVG Export Plug-In . SVG Version: 6.00 Build 0)  -->
<!DOCTYPE svg PUBLIC "-//W3C//DTD SVG 1.1//EN" "http://www.w3.org/Graphics/SVG/1.1/DTD/svg11.dtd">
<svg version="1.1" id="Capa_1" xmlns="http://www.w3.org/2000/svg" xmlns:xlink="http://www.w3.org/1999/xlink" x="0px" y="0px"
	 width="160px" height="160px" viewBox="0 0 160 160" enable-background="new 0 0 160 160" xml:space="preserve">
<g>
	<g>
		<path fill="#FFFFFF" d="M66.478,92.371c-1.22-1.22-3.198-1.22-4.419,0c-3.261,3.262-8.567,3.262-11.828,0
			c-1.221-1.22-3.199-1.22-4.42,0c-1.22,1.221-1.22,3.199,0,4.42c2.849,2.85,6.592,4.273,10.333,4.273
			c3.742,0,7.484-1.424,10.333-4.273C67.699,95.57,67.699,93.592,66.478,92.371z"/>
	</g>
</g>
<g>
	<g>
		<path fill="#FFFFFF" d="M114.188,92.371c-1.221-1.22-3.198-1.22-4.419,0c-3.262,3.262-8.566,3.262-11.828,0
			c-1.221-1.22-3.199-1.22-4.42,0c-1.221,1.221-1.221,3.199,0,4.42c2.849,2.85,6.592,4.273,10.333,4.273
			c3.743,0,7.485-1.424,10.334-4.273C115.408,95.57,115.408,93.592,114.188,92.371z"/>
	</g>
</g>
<g>
	<g>
		<path fill="#FFFFFF" d="M146.565,89.583c-0.013-6.979-5.349-12.738-12.151-13.427V71.25c0-18.254-9.041-34.435-22.881-44.302
			C109.143,11.487,95.848,0,80.04,0C64.233,0,50.938,11.487,48.546,26.947c-13.84,9.867-22.881,26.048-22.881,44.302v4.9
			c-6.84,0.652-12.217,6.426-12.23,13.433l-0.015,7.915c-0.006,3.616,1.397,7.018,3.952,9.576c2.555,2.56,5.954,3.969,9.569,3.969
			h1.514c6.864,23.719,25.854,42.645,50.792,48.863c0.248,0.063,0.502,0.094,0.756,0.094c0.253,0,0.506-0.031,0.754-0.093
			l0.052-0.013c5.718-1.424,11.236-3.555,16.401-6.332c1.521-0.816,2.09-2.711,1.273-4.231c-0.817-1.521-2.711-2.09-4.232-1.272
			c-4.496,2.416-9.285,4.296-14.247,5.591c-28.354-7.431-48.09-32.948-48.09-62.328v-3.989l1.349-0.305
			C51.055,83,68.189,75.73,83.516,65.775c10.534,13.727,26.867,21.837,44.289,21.837h0.359v3.691
			c0,10.603-2.645,21.133-7.646,30.453c-0.816,1.521-0.246,3.415,1.275,4.231c0.47,0.253,0.976,0.372,1.475,0.372
			c1.114,0,2.192-0.597,2.756-1.647c2.334-4.348,4.195-8.938,5.569-13.669h1.466c3.616,0,7.015-1.409,9.57-3.969
			c2.555-2.56,3.957-5.96,3.951-9.577L146.565,89.583z M26.941,104.793L26.941,104.793c-1.945,0-3.772-0.758-5.146-2.133
			c-1.374-1.377-2.128-3.206-2.125-5.15l0.015-7.915c0.006-3.562,2.591-6.53,5.98-7.141v8.867c0,4.593,0.44,9.098,1.284,13.472
			H26.941z M80.04,6.25c10.733,0,20.022,6.589,23.81,16.123c-7.195-3.519-15.275-5.498-23.81-5.498s-16.614,1.979-23.809,5.498
			C60.017,12.839,69.306,6.25,80.04,6.25z M128.165,80v1.363h-0.359c-15.351,0-29.75-7.087-39.112-19.102
			c2.164-1.534,4.289-3.121,6.367-4.764c1.354-1.071,1.583-3.036,0.513-4.39s-3.036-1.583-4.39-0.514
			C73.9,66.259,53.406,76.055,31.916,80.924V80v-8.75c0-26.536,21.588-48.125,48.125-48.125s48.125,21.588,48.125,48.125V80
			L128.165,80z M138.205,102.659c-1.363,1.365-3.172,2.121-5.1,2.133c0.863-4.436,1.309-8.956,1.309-13.489v-8.835
			c3.351,0.643,5.895,3.593,5.902,7.126l0.014,7.916C140.334,99.454,139.579,101.283,138.205,102.659z"/>
	</g>
</g>
<g>
	<g>
		<path fill="#FFFFFF" d="M103.878,45.8c-1.149-1.287-3.126-1.398-4.413-0.249l-0.043,0.039c-1.286,1.15-1.397,3.125-0.248,4.413
			c0.618,0.691,1.473,1.043,2.332,1.043c0.74,0,1.484-0.262,2.081-0.795l0.043-0.039C104.917,49.063,105.027,47.087,103.878,45.8z"
			/>
	</g>
</g>
<g>
	<g>
		<path fill="#FFFFFF" d="M136.084,146.624L118.82,129.36l-6.64-17.357c-1.025-2.68-3.815-4.251-6.641-3.735
			c-11.782,2.152-21.144,11.513-23.292,23.285l-0.014,0.073c-0.502,2.745,1.006,5.513,3.584,6.581l17.035,7.057l13.821,13.82
			c0.61,0.611,1.41,0.916,2.21,0.916c0.799,0,1.6-0.305,2.209-0.915c1.221-1.221,1.221-3.199,0-4.42l-12.051-12.051l7.097-7.096
			l15.524,15.524c1.221,1.221,3.199,1.221,4.42,0C137.305,149.823,137.305,147.844,136.084,146.624z M103.891,138.928l-15.467-6.407
			c1.729-9.085,8.93-16.304,18.005-18.062l6.067,15.863L103.891,138.928z"/>
	</g>
</g>
<g>
	<g>
		<path fill="#FFFFFF" d="M144.125,154.665c-0.581-0.581-1.387-0.915-2.209-0.915s-1.629,0.334-2.213,0.915
			c-0.581,0.581-0.912,1.388-0.912,2.21c0,0.821,0.331,1.627,0.912,2.209c0.584,0.58,1.391,0.916,2.213,0.916
			s1.628-0.335,2.209-0.916c0.581-0.582,0.916-1.388,0.916-2.209C145.041,156.053,144.707,155.246,144.125,154.665z"/>
	</g>
</g>
</svg>
