<?xml version="1.0" encoding="utf-8"?>
<!-- Generator: Adobe Illustrator 16.0.0, SVG Export Plug-In . SVG Version: 6.00 Build 0)  -->
<!DOCTYPE svg PUBLIC "-//W3C//DTD SVG 1.1//EN" "http://www.w3.org/Graphics/SVG/1.1/DTD/svg11.dtd">
<svg version="1.1" id="Capa_1" xmlns="http://www.w3.org/2000/svg" xmlns:xlink="http://www.w3.org/1999/xlink" x="0px" y="0px"
	 width="160px" height="160px" viewBox="0 0 160 160" enable-background="new 0 0 160 160" xml:space="preserve">
<g>
	<g>
		<path fill="#FFFFFF" d="M107.209,135.916c-1.219-1.223-3.199-1.223-4.418,0c-1.223,1.219-1.223,3.199,0,4.418
			c1.219,1.223,3.199,1.223,4.418,0C108.432,139.115,108.432,137.135,107.209,135.916z"/>
	</g>
</g>
<g>
	<g>
		<path fill="#FFFFFF" d="M155.116,94.461c-0.062-0.049-20.639-11.221-24.796-13.354c-3.655-6.044-15.146-25.052-15.146-25.055
			c-2.066-3.411-5.641-5.625-9.613-5.988c-0.34-0.061-0.565-0.059-0.804-0.04C94.563,50.02,66.952,50.006,55.001,50
			c-0.075-0.006-0.127,0.002-0.191,0.006c-0.031,0.002-0.061,0.006-0.091,0.008c-0.022,0.002-0.043,0.003-0.064,0.006
			c-4.045,0.297-7.711,2.541-9.829,6.035c0,0-11.49,19.008-15.146,25.052C23.864,84.091,7.315,93.216,5.444,94.114
			c-0.198,0.095-0.386,0.212-0.56,0.347c-6.05,4.683-6.499,13.475-1.223,18.75c4.022,4.027,10.254,4.827,15.16,1.941
			c0.518-0.305,10.855-6.881,17.207-10.4c4.784-2.654,9.122-6.078,12.894-10.181c1.602-1.747,2.115-2.301,2.953-3.214v26.076
			l-27.29,13.489c-3.729,1.841-6.577,5.179-7.813,9.158c-1.238,3.981-0.785,8.347,1.244,11.979c2.781,4.971,7.87,7.939,13.612,7.939
			h96.744c5.636,0,10.677-2.885,13.483-7.715c2.112-3.637,2.627-8.035,1.413-12.064c-1.212-4.039-4.071-7.426-7.846-9.294
			l-27.298-13.493V91.355c1.05,1.143,2.079,2.263,3.049,3.318c3.707,4.033,8.012,7.424,12.799,10.078
			c6.378,3.535,16.673,10.086,17.213,10.404c4.883,2.871,11.117,2.097,15.152-1.943C161.631,107.92,161.146,99.129,155.116,94.461z
			 M70.625,56.227l18.75,0.009v9.389C89.375,70.794,85.17,75,80,75c-5.178,0-9.375-4.197-9.375-9.375V56.227z M58.125,56.22
			l6.25,0.003v9.401c0,8.631,6.991,15.625,15.625,15.625c8.615,0,15.625-7.009,15.625-15.625v-9.386l6.25,0.003v28.133v31.875
			h-43.75C58.125,114.656,58.125,56.757,58.125,56.22z M44.313,90.347c-0.007,0.008-0.013,0.017-0.02,0.024
			c-3.31,3.594-7.109,6.593-11.295,8.914c-6.391,3.542-16.725,10.101-17.351,10.483c-2.445,1.438-5.556,1.036-7.565-0.976
			c-2.529-2.527-2.482-6.777,0.411-9.215c3.179-1.615,19.923-10.858,24.795-13.293c0.529-0.264,0.971-0.672,1.277-1.178
			c3.01-4.975,15.609-25.816,15.608-25.816c0.446-0.736,1.029-1.36,1.703-1.851v24.677C51.82,82.177,44.341,90.315,44.313,90.347z
			 M70.625,153.75h-12.5c-3.446,0-6.25-2.804-6.25-6.25s2.804-6.25,6.25-6.25h12.5V153.75z M132.652,136.529
			c2.227,1.102,3.914,3.102,4.631,5.491c0.717,2.382,0.414,4.979-0.832,7.125c-1.699,2.927-4.645,4.604-8.079,4.604H76.875v-12.5
			H92.5c1.727,0,3.125-1.398,3.125-3.125S94.227,135,92.5,135H58.125c-6.893,0-12.5,5.607-12.5,12.5c0,2.275,0.614,4.41,1.681,6.25
			H31.628c-3.498,0-6.471-1.729-8.156-4.74c-1.197-2.142-1.463-4.719-0.731-7.073c0.73-2.352,2.412-4.323,4.613-5.41L55.73,122.5
			h48.539L132.652,136.529z M151.918,108.795c-2.01,2.012-5.12,2.411-7.545,0.986c-0.691-0.421-10.902-6.91-17.369-10.495
			c-4.199-2.328-7.977-5.304-11.227-8.841c-2.373-2.583-5.299-5.766-7.652-8.326V57.453c0.677,0.486,1.259,1.106,1.701,1.836
			c0,0,12.6,20.844,15.609,25.819c0.307,0.506,0.749,0.914,1.277,1.179c4.84,2.419,21.645,11.692,24.795,13.292
			C154.409,102.023,154.439,106.273,151.918,108.795z"/>
	</g>
</g>
<g>
	<g>
		<path fill="#FFFFFF" d="M80,0C67.938,0,58.125,9.813,58.125,21.875S67.938,43.75,80,43.75s21.875-9.813,21.875-21.875
			S92.063,0,80,0z M80,37.5c-8.616,0-15.625-7.009-15.625-15.625S71.385,6.25,80,6.25c8.615,0,15.625,7.009,15.625,15.625
			S88.615,37.5,80,37.5z"/>
	</g>
</g>
</svg>
