<?xml version="1.0" encoding="utf-8"?>
<!-- Generator: Adobe Illustrator 16.0.0, SVG Export Plug-In . SVG Version: 6.00 Build 0)  -->
<!DOCTYPE svg PUBLIC "-//W3C//DTD SVG 1.1//EN" "http://www.w3.org/Graphics/SVG/1.1/DTD/svg11.dtd">
<svg version="1.1" id="Capa_1" xmlns="http://www.w3.org/2000/svg" xmlns:xlink="http://www.w3.org/1999/xlink" x="0px" y="0px"
	 width="160px" height="160px" viewBox="0 0 160 160" enable-background="new 0 0 160 160" xml:space="preserve">
<g>
	<g>
		<path fill="#F05B72" d="M122.354,54.313c-1.301-1.3-3.414-1.3-4.713,0L73.333,98.62L49.02,74.313c-1.3-1.3-3.414-1.3-4.713,0
			c-1.3,1.3-1.3,3.414,0,4.713l26.667,26.667c0.653,0.646,1.506,0.974,2.36,0.974s1.707-0.327,2.354-0.974l46.667-46.667
			C123.653,57.727,123.653,55.613,122.354,54.313z"/>
	</g>
</g>
<g>
	<g>
		<path fill="#F05B72" d="M147.62,20.14l-66.667-20c-0.626-0.187-1.286-0.187-1.913,0l-66.667,20C10.967,20.56,10,21.86,10,23.333
			v73.333c0,29.479,44.947,55.7,69.014,63.187c0.32,0.1,0.653,0.146,0.986,0.146s0.666-0.047,0.986-0.146
			C105.053,152.359,150,126.146,150,96.666V23.333C150,21.86,149.033,20.566,147.62,20.14z M143.334,96.666
			c0,23.407-37.087,48.021-63.334,56.508c-26.247-8.487-63.333-33.101-63.333-56.508V25.813L80,6.813l63.334,19V96.666z"/>
	</g>
</g>
</svg>
