<?xml version="1.0" encoding="utf-8"?>
<!-- Generator: Adobe Illustrator 16.0.0, SVG Export Plug-In . SVG Version: 6.00 Build 0)  -->
<!DOCTYPE svg PUBLIC "-//W3C//DTD SVG 1.1//EN" "http://www.w3.org/Graphics/SVG/1.1/DTD/svg11.dtd">
<svg version="1.1" id="Capa_1" xmlns="http://www.w3.org/2000/svg" xmlns:xlink="http://www.w3.org/1999/xlink" x="0px" y="0px"
	 width="160px" height="160px" viewBox="0 0 160 160" enable-background="new 0 0 160 160" xml:space="preserve">
<g>
	<g>
		<path fill="#F05B72" d="M132.656,25.574c-1.725,0-3.125,1.4-3.125,3.125s1.4,3.125,3.125,3.125s3.125-1.4,3.125-3.125
			S134.381,25.574,132.656,25.574z"/>
	</g>
</g>
<g>
	<g>
		<path fill="#F05B72" d="M148.893,22.425c-7.457-8.382-17.802-12.999-29.127-12.999c-12.385,0-23.685,4.8-32.68,13.882
			c-3.127,3.158-5.465,6.313-7.086,8.816c-1.621-2.503-3.958-5.658-7.086-8.816C63.919,14.227,52.619,9.427,40.234,9.427
			C16.529,9.427,0,29.258,0,52.836c0,31.849,33.751,58.667,77.954,96.974c0.587,0.509,1.317,0.763,2.046,0.763
			s1.459-0.254,2.047-0.763C126.354,111.411,160,84.641,160,52.836C160,41.275,156.056,30.475,148.893,22.425z M80,143.314
			C38.26,107.195,6.25,81.252,6.25,52.836c0-21.185,14.61-37.16,33.984-37.16c10.757,0,20.207,3.996,28.084,11.875
			c6.002,6.003,8.802,12.129,8.83,12.191c0.502,1.121,1.617,1.841,2.846,1.843c0.002,0,0.004,0,0.006,0
			c1.229,0,2.344-0.723,2.85-1.843c0.027-0.062,2.828-6.188,8.83-12.191c7.877-7.88,17.326-11.875,28.084-11.875
			c19.375,0,33.984,15.975,33.984,37.16C153.75,81.894,119.628,109.022,80,143.314z"/>
	</g>
</g>
<g>
	<g>
		<path fill="#F05B72" d="M143.586,36.707c-0.801-1.529-2.69-2.118-4.219-1.316c-1.528,0.802-2.117,2.69-1.316,4.219
			c2.063,3.934,3.199,8.631,3.199,13.228c0,9.03-4.298,18.614-13.525,30.162c-1.078,1.348-0.857,3.314,0.49,4.393
			c1.357,1.084,3.321,0.849,4.393-0.49c10.16-12.716,14.893-23.54,14.893-34.064C147.5,47.166,146.146,41.589,143.586,36.707z"/>
	</g>
</g>
<g>
	<g>
		<path fill="#F05B72" d="M110,69.324H92.5v-17.5c0-1.726-1.398-3.125-3.125-3.125h-18.75c-1.726,0-3.125,1.399-3.125,3.125v17.5H50
			c-1.726,0-3.125,1.399-3.125,3.125v18.75c0,1.726,1.399,3.125,3.125,3.125h17.5v17.5c0,1.726,1.399,3.125,3.125,3.125h18.75
			c1.727,0,3.125-1.399,3.125-3.125v-17.5H110c1.727,0,3.125-1.399,3.125-3.125v-18.75C113.125,70.723,111.727,69.324,110,69.324z
			 M106.875,88.073h-17.5c-1.727,0-3.125,1.399-3.125,3.125v17.5h-12.5v-17.5c0-1.726-1.399-3.125-3.125-3.125h-17.5v-12.5h17.5
			c1.726,0,3.125-1.399,3.125-3.125v-17.5h12.5v17.5c0,1.726,1.398,3.125,3.125,3.125h17.5V88.073z"/>
	</g>
</g>
</svg>
