<?xml version="1.0" encoding="utf-8"?>
<!-- Generator: Adobe Illustrator 16.0.0, SVG Export Plug-In . SVG Version: 6.00 Build 0)  -->
<!DOCTYPE svg PUBLIC "-//W3C//DTD SVG 1.1//EN" "http://www.w3.org/Graphics/SVG/1.1/DTD/svg11.dtd">
<svg version="1.1" id="Layer_1" xmlns="http://www.w3.org/2000/svg" xmlns:xlink="http://www.w3.org/1999/xlink" x="0px" y="0px"
	 width="160px" height="160px" viewBox="-40 -40 160 160" enable-background="new -40 -40 160 160" xml:space="preserve">
<g>
	<path fill="#FFFFFF" d="M105.051,0.962C94.121-22.54,71.199-38.172,45.33-39.766L42.758-40l-2.35,0.058
		c-7.986,0.294-15.809,2.318-22.931,5.935C-1.462-24.54-13.398-5.156-13.326,16.016v9.929l-15.616,26.028
		c-0.495,0.816-0.51,1.848-0.038,2.684c0.475,0.836,1.364,1.354,2.322,1.354H-9.97l-1.618,24.037
		c-1.234,7.111,3.452,13.895,10.538,15.268c0.174,0.035,0.355,0.053,0.534,0.053c0.094,0,0.191-0.008,0.283-0.018L16,93.588v23.746
		c0,1.471,1.194,2.666,2.666,2.666h63.992c1.471,0,2.666-1.195,2.666-2.666V90.836l20.832-51.478
		C110.734,26.892,110.338,13.144,105.051,0.962z M101.174,37.46L80.186,89.336c-0.146,0.379-0.201,0.789-0.162,1.195
		c0,0.053-0.033,0.105-0.033,0.16v23.973H21.334V90.668c0-0.055-0.03-0.104-0.032-0.16c-0.002-0.055,0.024-0.117,0.015-0.176
		c-0.032-0.152-0.08-0.301-0.141-0.445c-0.029-0.119-0.067-0.23-0.111-0.344c-0.11-0.225-0.246-0.441-0.416-0.627
		c-0.03-0.049-0.059-0.096-0.089-0.143c-0.031-0.023-0.062-0.041-0.09-0.066c-0.552-0.543-1.317-0.816-2.088-0.738l-18.766,2.029
		c-4.136-1.041-6.734-5.143-5.912-9.332l1.84-27.139c0.106-1.469-1.004-2.746-2.472-2.85c-0.202,0-15.01,0-15.01,0l13.567-22.63
		c0.028-0.054,0.044-0.112,0.063-0.168c0.077-0.162,0.138-0.33,0.178-0.502c0.052-0.174,0.09-0.355,0.107-0.538
		c0-0.06,0.036-0.114,0.036-0.178V16.018C-8.058-3.144,2.734-20.692,19.87-29.274c6.434-3.266,13.5-5.096,20.708-5.367h2.133
		C67.465-33.94,89.715-19.334,100.188,3.11C104.908,14.01,105.262,26.308,101.174,37.46z"/>
	<path fill="#FFFFFF" d="M45.33-12.476c-9.813-8.334-24.452-7.444-33.178,2.021c-8.729,9.464-8.431,24.126,0.67,33.23l30.166,30.169
		c0.615,0.617,1.488,0.889,2.344,0.74c0.15,0.029,0.305,0.043,0.457,0.043c0.709,0,1.385-0.287,1.885-0.783l30.162-30.171
		c9.102-9.104,9.4-23.767,0.672-33.23C69.781-19.92,55.137-20.813,45.33-12.476z M74.066,19.006L45.33,47.746l-28.74-28.74
		C9.3,11.718,9.3-0.1,16.59-7.39c7.292-7.288,19.108-7.288,26.398,0l0.457,0.458c1.043,1.042,2.729,1.042,3.773,0l0.459-0.458
		c7.291-7.288,19.107-7.288,26.396,0c7.289,7.292,7.289,19.109,0,26.396H74.066z"/>
	<path fill="#FFFFFF" d="M29.792-10.186c-6.47,0-12.302,3.896-14.78,9.876c-2.474,5.978-1.107,12.859,3.466,17.432
		c1.045,1.012,2.708,0.996,3.738-0.032c1.028-1.03,1.042-2.691,0.032-3.738c-3.05-3.048-3.962-7.634-2.313-11.621
		c1.652-3.986,5.542-6.584,9.856-6.582c1.47,0,2.664-1.196,2.664-2.666C32.456-8.992,31.262-10.186,29.792-10.186z"/>
</g>
</svg>
