<?xml version="1.0" encoding="utf-8"?>
<!-- Generator: Adobe Illustrator 16.0.0, SVG Export Plug-In . SVG Version: 6.00 Build 0)  -->
<!DOCTYPE svg PUBLIC "-//W3C//DTD SVG 1.1//EN" "http://www.w3.org/Graphics/SVG/1.1/DTD/svg11.dtd">
<svg version="1.1" id="Capa_1" xmlns="http://www.w3.org/2000/svg" xmlns:xlink="http://www.w3.org/1999/xlink" x="0px" y="0px"
	 width="160px" height="160px" viewBox="0 0 160 160" enable-background="new 0 0 160 160" xml:space="preserve">
<path fill="#F05B72" d="M113.104,0C87.244,0,66.207,21.037,66.207,46.896c0,8.814,2.488,17.035,6.734,24.085L1.617,142.307
	c-2.155,2.154-2.155,5.646,0,7.801c1.079,1.078,2.488,1.617,3.9,1.617c1.413,0,2.822-0.539,3.901-1.617l9.893-9.893l18.168,18.168
	c1.079,1.079,2.488,1.617,3.901,1.617c1.412,0,2.822-0.538,3.9-1.617c2.155-2.154,2.155-5.646,0-7.801l-18.168-18.168l5.992-5.992
	l12.651,12.651c1.079,1.079,2.488,1.616,3.901,1.616c1.412,0,2.822-0.537,3.9-1.616c2.155-2.155,2.155-5.647,0-7.802l-12.651-12.65
	l5.992-5.992l18.168,18.168c1.079,1.079,2.488,1.617,3.9,1.617c1.413,0,2.822-0.538,3.901-1.617c2.154-2.154,2.154-5.646,0-7.801
	l-18.168-18.168l25.035-25.035c8.51,8.632,20.32,14,33.371,14c25.859,0,46.896-21.037,46.896-46.896S138.963,0,113.104,0z
	 M113.104,82.759c-19.773,0-35.862-16.088-35.862-35.862s16.089-35.862,35.862-35.862s35.861,16.088,35.861,35.862
	S132.877,82.759,113.104,82.759z"/>
</svg>
