<?xml version="1.0" encoding="utf-8"?>
<!-- Generator: Adobe Illustrator 16.0.0, SVG Export Plug-In . SVG Version: 6.00 Build 0)  -->
<!DOCTYPE svg PUBLIC "-//W3C//DTD SVG 1.1//EN" "http://www.w3.org/Graphics/SVG/1.1/DTD/svg11.dtd">
<svg version="1.1" id="Capa_1" xmlns="http://www.w3.org/2000/svg" xmlns:xlink="http://www.w3.org/1999/xlink" x="0px" y="0px"
	 width="160px" height="160px" viewBox="0 0 160 160" enable-background="new 0 0 160 160" xml:space="preserve">
<g>
	<g>
		<path fill="#F05B72" d="M79.42,86.213c0.166,0,0.332,0,0.53,0c0.066,0,0.133,0,0.199,0c0.1,0,0.232,0,0.332,0
			c9.708-0.166,17.561-3.578,23.359-10.106c12.756-14.38,10.635-39.031,10.403-41.383c-0.828-17.66-9.178-26.109-16.069-30.052
			C93.038,1.723,87.041,0.132,80.348,0h-0.231c-0.033,0-0.1,0-0.133,0h-0.199c-3.678,0-10.901,0.596-17.826,4.539
			c-6.958,3.943-15.44,12.392-16.269,30.185c-0.232,2.353-2.352,27.003,10.404,41.383C61.859,82.635,69.712,86.047,79.42,86.213z
			 M54.537,35.552c0-0.099,0.033-0.199,0.033-0.265C55.664,11.53,72.528,8.979,79.751,8.979h0.132c0.066,0,0.166,0,0.265,0
			c8.947,0.199,24.154,3.844,25.181,26.308c0,0.1,0,0.199,0.033,0.265c0.033,0.232,2.353,22.763-8.184,34.624
			c-4.175,4.705-9.741,7.024-17.063,7.091c-0.066,0-0.1,0-0.166,0l0,0c-0.066,0-0.099,0-0.166,0
			c-7.29-0.066-12.889-2.386-17.03-7.091C52.251,58.381,54.504,35.75,54.537,35.552z"/>
		<path fill="#F05B72" d="M148.039,127.099c0-0.033,0-0.065,0-0.099c0-0.266-0.033-0.531-0.033-0.829
			c-0.199-6.56-0.629-21.901-15.01-26.805c-0.1-0.033-0.231-0.065-0.331-0.099c-14.942-3.811-27.368-12.426-27.501-12.525
			c-2.021-1.424-4.804-0.928-6.229,1.094s-0.928,4.805,1.094,6.229c0.563,0.398,13.75,9.576,30.25,13.816
			c7.721,2.751,8.582,11.001,8.813,18.555c0,0.299,0,0.564,0.033,0.829c0.033,2.981-0.165,7.587-0.696,10.237
			c-5.367,3.049-26.406,13.586-58.413,13.586c-31.874,0-53.046-10.57-58.447-13.618c-0.53-2.651-0.762-7.257-0.696-10.238
			c0-0.265,0.033-0.53,0.033-0.829c0.232-7.554,1.093-15.804,8.813-18.554c16.5-4.241,29.688-13.452,30.251-13.817
			c2.021-1.424,2.518-4.207,1.093-6.229s-4.208-2.518-6.229-1.094c-0.133,0.1-12.491,8.715-27.5,12.525
			c-0.133,0.033-0.232,0.066-0.332,0.099c-14.38,4.937-14.811,20.278-15.009,26.805c0,0.298,0,0.563-0.033,0.829
			c0,0.033,0,0.066,0,0.099c-0.033,1.724-0.066,10.569,1.69,15.01c0.332,0.861,0.928,1.591,1.723,2.087
			C16.368,144.825,40.19,160,80.05,160c39.858,0,63.682-15.208,64.676-15.838c0.763-0.496,1.392-1.226,1.724-2.087
			C148.105,137.668,148.072,128.822,148.039,127.099z"/>
	</g>
</g>
</svg>
