<?xml version="1.0" encoding="utf-8"?>
<!-- Generator: Adobe Illustrator 16.0.0, SVG Export Plug-In . SVG Version: 6.00 Build 0)  -->
<!DOCTYPE svg PUBLIC "-//W3C//DTD SVG 1.1//EN" "http://www.w3.org/Graphics/SVG/1.1/DTD/svg11.dtd">
<svg version="1.1" id="Capa_1" xmlns="http://www.w3.org/2000/svg" xmlns:xlink="http://www.w3.org/1999/xlink" x="0px" y="0px"
	 width="160px" height="160px" viewBox="0 0 160 160" enable-background="new 0 0 160 160" xml:space="preserve">
<g>
	<g>
		<path fill="#FFFFFF" d="M108.017,75.25c-0.011,0-0.022,0-0.033,0H94.584V61.817c0.019-2.709-2.163-4.92-4.872-4.938
			c-0.011,0-0.022,0-0.032,0H70.321c-2.709,0-4.905,2.196-4.905,4.905v13.432H52.017c-2.709-0.018-4.92,2.163-4.938,4.872
			c0,0.022,0,0.044,0,0.066V99.48c0,2.709,2.196,4.904,4.905,4.904h13.432v13.399c-0.018,2.709,2.164,4.921,4.873,4.938
			c0.011,0,0.022,0,0.033,0h19.326c2.709,0,4.904-2.196,4.904-4.905l0,0v-13.433h13.433c2.709,0.019,4.921-2.163,4.938-4.872
			c0-0.011,0-0.022,0-0.032V80.155C112.922,77.446,110.727,75.25,108.017,75.25z M106.338,97.801H91.292
			c-1.817,0-3.292,1.475-3.292,3.292v15.046H72v-15.046c0-1.817-1.474-3.292-3.292-3.292H53.663V81.834h15.045
			c1.818,0,3.292-1.474,3.292-3.292V63.463h15.967v15.045c0,1.818,1.475,3.292,3.293,3.292h15.078V97.801z"/>
	</g>
</g>
<g>
	<g>
		<path fill="#FFFFFF" d="M137.284,32.253L137.284,32.253h-27.128V20.665c0.171-5.288-3.978-9.713-9.266-9.884
			c-0.27-0.009-0.539-0.006-0.809,0.008H59.917c-5.284-0.275-9.791,3.785-10.066,9.068c-0.014,0.269-0.017,0.539-0.008,0.808v11.522
			H22.716C12.247,32.188,0,38.146,0,54.904v71.605c0,16.757,12.247,22.716,22.716,22.716h114.568
			c10.469,0,22.716-5.959,22.716-22.716V54.97C160,38.212,147.786,32.253,137.284,32.253z M56.428,20.665
			c0-0.955,0-3.522,3.523-3.522h40.131c3.523,0,3.523,2.535,3.523,3.522v11.522H56.428V20.665z M153.416,126.509
			c0,14.552-11.26,16.132-16.132,16.132H22.716c-4.839,0-16.131-1.58-16.131-16.132V54.97c0-14.552,11.259-16.132,16.131-16.132
			h114.568c4.839,0,16.132,1.58,16.132,16.132V126.509L153.416,126.509z"/>
	</g>
</g>
</svg>
