<?xml version="1.0" encoding="utf-8"?>
<!-- Generator: Adobe Illustrator 16.0.0, SVG Export Plug-In . SVG Version: 6.00 Build 0)  -->
<!DOCTYPE svg PUBLIC "-//W3C//DTD SVG 1.1//EN" "http://www.w3.org/Graphics/SVG/1.1/DTD/svg11.dtd">
<svg version="1.1" id="Capa_1" xmlns="http://www.w3.org/2000/svg" xmlns:xlink="http://www.w3.org/1999/xlink" x="0px" y="0px"
	 width="160px" height="160px" viewBox="0 0 160 160" enable-background="new 0 0 160 160" xml:space="preserve">
<path fill="#FFFFFF" d="M40.425,49.188c8.316,0,15.082-6.766,15.082-15.082s-6.766-15.082-15.082-15.082S25.343,25.79,25.343,34.106
	S32.108,49.188,40.425,49.188z M40.425,26.258c4.328,0,7.848,3.521,7.848,7.848c0,4.328-3.521,7.848-7.848,7.848
	c-4.327,0-7.849-3.521-7.849-7.848S36.098,26.258,40.425,26.258z M55.276,110.1c0.264,0.931,0.144,1.929-0.334,2.771l-15.596,27.483
	h3.56c1.998,0,3.617,1.619,3.617,3.617s-1.619,3.617-3.617,3.617h-9.751c-0.008,0-0.016,0.001-0.024,0.001
	c-0.044,0-0.089-0.007-0.132-0.009c-0.09-0.003-0.18-0.007-0.269-0.016c-0.057-0.008-0.114-0.018-0.171-0.026
	c-0.085-0.014-0.169-0.029-0.252-0.049c-0.051-0.013-0.102-0.025-0.153-0.04c-0.103-0.028-0.204-0.063-0.302-0.1
	c-0.031-0.012-0.062-0.021-0.092-0.034c-0.134-0.056-0.263-0.118-0.388-0.188c-0.007-0.004-0.015-0.006-0.022-0.01
	c-0.033-0.019-0.063-0.041-0.095-0.061c-0.061-0.037-0.122-0.074-0.18-0.114c-0.049-0.034-0.095-0.07-0.142-0.106
	c-0.045-0.034-0.09-0.068-0.133-0.104c-0.052-0.044-0.102-0.091-0.15-0.137c-0.035-0.033-0.07-0.065-0.104-0.101
	c-0.049-0.05-0.095-0.102-0.141-0.154c-0.032-0.035-0.063-0.071-0.093-0.109c-0.041-0.051-0.08-0.104-0.119-0.158
	c-0.031-0.043-0.062-0.086-0.091-0.131c-0.032-0.049-0.061-0.099-0.09-0.148c-0.031-0.053-0.062-0.107-0.09-0.162
	c-0.022-0.043-0.043-0.088-0.064-0.133c-0.03-0.063-0.058-0.127-0.084-0.192c-0.016-0.04-0.03-0.081-0.044-0.121
	c-0.025-0.069-0.049-0.14-0.07-0.212c-0.012-0.041-0.021-0.084-0.032-0.125c-0.017-0.07-0.034-0.141-0.047-0.212
	c-0.009-0.05-0.016-0.102-0.023-0.151c-0.009-0.064-0.019-0.127-0.024-0.191c-0.006-0.065-0.007-0.131-0.01-0.196
	c-0.001-0.042-0.006-0.083-0.006-0.125c0-0.011,0.001-0.021,0.001-0.032c0-0.072,0.006-0.143,0.011-0.215
	c0.003-0.049,0.005-0.099,0.01-0.147c0.006-0.06,0.018-0.119,0.027-0.179c0.009-0.061,0.018-0.121,0.03-0.181
	c0.009-0.039,0.021-0.077,0.03-0.116c0.02-0.079,0.039-0.158,0.064-0.235c0.007-0.021,0.016-0.042,0.023-0.063
	c0.032-0.094,0.066-0.187,0.105-0.276c0.007-0.017,0.016-0.032,0.023-0.048c0.043-0.094,0.089-0.188,0.139-0.276
	c0.003-0.005,0.004-0.01,0.007-0.015l16.853-29.697l-20.726-11.393c-1.734-0.953-2.375-3.119-1.452-4.861
	c0.011-0.265,0.048-0.531,0.12-0.797l6.763-25.017c0.521-1.928,2.507-3.068,4.436-2.548c1.928,0.521,3.069,2.507,2.547,4.436
	l-6.439,23.817l21.447,11.791C54.386,108.382,55.012,109.168,55.276,110.1z M85.023,17.441l-10.012,23.6
	C71.104,50.253,64.098,62.5,48.447,62.5h-4.912h-6.669c-8.882,0-14.836,5.099-19.908,17.051L6.947,103.148
	c-0.584,1.379-1.923,2.205-3.331,2.205c-0.471,0-0.95-0.092-1.411-0.287c-1.839-0.78-2.697-2.903-1.917-4.742l10.011-23.6
	c3.909-9.212,10.916-21.458,26.567-21.458h6.669h4.91c8.885,0,14.838-5.099,19.908-17.05l10.011-23.6
	c0.78-1.839,2.904-2.696,4.742-1.917C84.944,13.479,85.803,15.602,85.023,17.441z M114.857,49.188
	c8.315,0,15.081-6.766,15.081-15.082s-6.766-15.082-15.081-15.082c-8.316,0-15.082,6.766-15.082,15.082
	S106.541,49.188,114.857,49.188z M114.857,26.258c4.327,0,7.848,3.521,7.848,7.848c0,4.328-3.521,7.848-7.848,7.848
	c-4.328,0-7.849-3.521-7.849-7.848S110.529,26.258,114.857,26.258z M132.199,96.234c0.924,1.741,0.283,3.908-1.451,4.861
	l-20.727,11.393l16.854,29.697c0.002,0.005,0.004,0.01,0.007,0.015c0.051,0.091,0.097,0.183,0.14,0.277
	c0.008,0.016,0.016,0.031,0.022,0.047c0.039,0.091,0.073,0.183,0.105,0.277c0.007,0.021,0.017,0.042,0.022,0.063
	c0.025,0.076,0.045,0.156,0.064,0.234c0.01,0.039,0.021,0.078,0.029,0.117c0.013,0.059,0.021,0.119,0.031,0.18
	c0.009,0.06,0.021,0.119,0.027,0.18c0.004,0.048,0.006,0.098,0.01,0.146c0.004,0.072,0.01,0.144,0.01,0.215
	c0,0.012,0.002,0.021,0.002,0.032c0,0.042-0.004,0.083-0.006,0.126c-0.002,0.064-0.004,0.13-0.01,0.195
	c-0.006,0.064-0.016,0.128-0.024,0.191c-0.007,0.051-0.014,0.102-0.023,0.152c-0.013,0.07-0.03,0.141-0.048,0.211
	c-0.01,0.042-0.02,0.084-0.032,0.125c-0.021,0.072-0.044,0.143-0.069,0.213c-0.015,0.041-0.029,0.08-0.045,0.121
	c-0.025,0.064-0.055,0.129-0.084,0.192c-0.021,0.044-0.041,0.089-0.063,0.132c-0.028,0.056-0.06,0.109-0.091,0.162
	c-0.029,0.051-0.059,0.101-0.09,0.149c-0.029,0.044-0.061,0.088-0.092,0.131c-0.037,0.054-0.076,0.106-0.118,0.158
	c-0.03,0.038-0.062,0.073-0.093,0.108c-0.045,0.053-0.092,0.105-0.141,0.155c-0.033,0.034-0.068,0.067-0.104,0.101
	c-0.049,0.046-0.098,0.092-0.15,0.137c-0.043,0.036-0.088,0.07-0.133,0.104c-0.047,0.036-0.093,0.072-0.142,0.106
	c-0.058,0.04-0.12,0.076-0.181,0.114c-0.031,0.019-0.061,0.041-0.094,0.06c-0.008,0.004-0.016,0.007-0.021,0.011
	c-0.126,0.07-0.256,0.134-0.39,0.188c-0.029,0.012-0.06,0.021-0.089,0.032c-0.1,0.038-0.202,0.072-0.307,0.102
	c-0.05,0.014-0.1,0.026-0.148,0.038c-0.086,0.021-0.172,0.037-0.26,0.051c-0.055,0.009-0.109,0.019-0.164,0.025
	c-0.09,0.01-0.183,0.014-0.274,0.018c-0.043,0.001-0.085,0.008-0.129,0.008c-0.008,0-0.016-0.002-0.024-0.002h-9.75
	c-1.998,0-3.617-1.619-3.617-3.617c0-1.997,1.619-3.616,3.617-3.616h3.56l-15.597-27.483c-0.478-0.842-0.598-1.84-0.334-2.771
	c0.264-0.931,0.889-1.717,1.737-2.184l21.448-11.789l-6.439-23.818c-0.521-1.928,0.619-3.914,2.547-4.435
	c1.93-0.52,3.914,0.619,4.436,2.548l6.764,25.016C132.15,95.703,132.188,95.97,132.199,96.234z M159.698,17.693l-10.279,23.6
	c-4.008,9.199-11.186,21.427-27.175,21.427h-11.891c-15.99,0-23.168-12.229-27.176-21.426c-0.798-1.832,0.04-3.962,1.871-4.761
	c1.832-0.797,3.963,0.04,4.761,1.871c5.217,11.973,11.36,17.083,20.543,17.083h11.891c9.183,0,15.327-5.109,20.544-17.083
	l10.279-23.599c0.797-1.831,2.929-2.668,4.76-1.871C159.658,13.731,160.496,15.863,159.698,17.693z M97.092,97.252
	c1.238,1.567,0.973,3.842-0.596,5.08c-0.664,0.525-1.454,0.779-2.24,0.779c-1.068,0-2.125-0.471-2.84-1.375l-3.104-3.928
	c-1.238-1.566-0.971-3.842,0.596-5.08s3.842-0.973,5.08,0.596L97.092,97.252z M72.658,73.206l-3.103,3.928
	c-0.714,0.903-1.772,1.375-2.84,1.375c-0.785,0-1.576-0.254-2.24-0.779c-1.567-1.238-1.834-3.513-0.596-5.08l3.103-3.928
	c1.238-1.567,3.513-1.833,5.08-0.596C73.63,69.364,73.896,71.639,72.658,73.206z M156.023,73.206l-3.104,3.928
	c-0.713,0.903-1.771,1.375-2.84,1.375c-0.785,0-1.576-0.254-2.24-0.779c-1.567-1.238-1.834-3.512-0.596-5.08l3.104-3.928
	c1.238-1.568,3.512-1.834,5.08-0.596C156.994,69.364,157.262,71.639,156.023,73.206z M2.425,47.098
	c-1.239-1.567-0.971-3.842,0.596-5.08c1.567-1.239,3.841-0.972,5.08,0.596l3.104,3.928c1.238,1.567,0.971,3.842-0.596,5.08
	C9.945,52.146,9.154,52.4,8.369,52.4c-1.069,0-2.127-0.471-2.841-1.375L2.425,47.098z M14.308,123.805
	c1.238,1.566,0.971,3.842-0.596,5.08c-0.664,0.524-1.455,0.779-2.24,0.779c-1.068,0-2.126-0.472-2.84-1.375l-3.103-3.928
	c-1.238-1.567-0.971-3.842,0.596-5.08c1.567-1.238,3.841-0.972,5.08,0.596L14.308,123.805z"/>
</svg>
