<?xml version="1.0" encoding="utf-8"?>
<!-- Generator: Adobe Illustrator 16.0.0, SVG Export Plug-In . SVG Version: 6.00 Build 0)  -->
<!DOCTYPE svg PUBLIC "-//W3C//DTD SVG 1.1//EN" "http://www.w3.org/Graphics/SVG/1.1/DTD/svg11.dtd">
<svg version="1.1" id="Layer_1" xmlns="http://www.w3.org/2000/svg" xmlns:xlink="http://www.w3.org/1999/xlink" x="0px" y="0px"
	 width="438.693px" height="180px" viewBox="0 0 438.693 180" enable-background="new 0 0 438.693 180" xml:space="preserve">
<g>
	<g>
		
			<linearGradient id="SVGID_1_" gradientUnits="userSpaceOnUse" x1="394.4033" y1="-133.6035" x2="394.4033" y2="-319.2097" gradientTransform="matrix(1 0 0 -1 -226 -135)">
			<stop  offset="0" style="stop-color:#F28197"/>
			<stop  offset="1" style="stop-color:#EF5B72"/>
		</linearGradient>
		<path fill="url(#SVGID_1_)" d="M158.329,125.516c0,0-7.312,1.202-14.452,4.148c0,0-3.576,1.449-7.437,2.842
			c0,0-5.859,2.813-11.061,3.432c0,0-7.878,1.484-3.975,6.775c0.024,0.032,0.049,0.064,0.074,0.098
			c0.102,0.135,0.211,0.271,0.329,0.412c0.018,0.021,0.034,0.041,0.052,0.063c0.264,0.27,7.125,7.091,21.448,3.137
			c1.01-0.271,1.951-0.525,2.6-0.707c0,0,12.291-3.89,16.618-1.887c0,0,6.23,2.125,0.786,6.667c0,0-17.688,16.478-52.339,13.969
			c-36.37-8.598-63.437-41.271-63.437-80.266c0-45.551,36.928-82.479,82.48-82.479c4.334,0,8.59,0.336,12.744,0.981
			C135.819,0.938,128.55,0,121.062,0C72.469,0,33.077,39.392,33.077,87.984c0,39.161,25.588,72.342,60.955,83.749
			c15.168,6.181,41.002,11.951,79.101,5.313c0,0,9.705-1.531,22.223-7.537c0,0,24.676-12.984,49.063-9.906
			c0,0,33.148,2.604,59.313,15.657C303.731,175.259,217.12,117.657,158.329,125.516z"/>
		<g>
			<path fill="#FFFFFF" d="M117.621,89.964c0,3.373-1.212,6.072-3.636,8.097c-2.425,2.028-6.157,3.043-11.195,3.043
				c-7.273,0-12.768,0.056-16.479,0.17c0-1.402,0.112-2.404,0.34-3.012c1.061-0.076,1.866-0.265,2.416-0.568
				c0.549-0.303,0.938-0.861,1.165-1.678c0.228-0.813,0.342-1.998,0.342-3.551V70.813c0-1.4-0.114-2.462-0.342-3.182
				c-0.227-0.72-0.616-1.231-1.165-1.535c-0.55-0.302-1.355-0.492-2.416-0.567c-0.189-0.683-0.284-1.687-0.284-3.012
				c1.477,0.113,3.466,0.17,5.966,0.17c2.009,0,3.561-0.019,4.66-0.058l4.831-0.056c4.281,0,7.539,0.645,9.774,1.932
				c2.235,1.289,3.353,3.447,3.353,6.478c0,2.426-0.758,4.471-2.272,6.138c-1.517,1.667-3.581,2.69-6.195,3.069
				C113.908,80.645,117.621,83.903,117.621,89.964z M105.375,67.318c-1.498-1.155-3.287-1.733-5.37-1.733
				c-0.759,0-1.573,0.114-2.444,0.341v13.695h1.818c5.492,0,8.24-2.31,8.24-6.933C107.62,70.265,106.871,68.475,105.375,67.318z
				 M107.904,96.188c1.25-1.308,1.875-3.136,1.875-5.484c0-5.417-3.618-8.125-10.854-8.125h-1.363v10.057
				c0,1.594,0.151,2.776,0.454,3.553c0.303,0.777,0.795,1.299,1.479,1.563c0.681,0.268,1.666,0.398,2.955,0.398
				C104.835,98.146,106.654,97.494,107.904,96.188z"/>
			<path fill="#FFFFFF" d="M131.345,99.057c-2.861-1.705-5.078-4.063-6.649-7.076c-1.573-3.009-2.359-6.411-2.359-10.199
				c0-3.864,0.824-7.273,2.472-10.229c1.649-2.955,3.912-5.256,6.791-6.904c2.878-1.648,6.118-2.472,9.717-2.472
				c3.675,0,6.962,0.815,9.859,2.444c2.899,1.629,5.152,3.902,6.763,6.818c1.609,2.918,2.415,6.29,2.415,10.116
				c0,3.789-0.806,7.208-2.415,10.256c-1.611,3.051-3.856,5.445-6.734,7.188c-2.879,1.743-6.175,2.614-9.888,2.614
				C137.529,101.613,134.205,100.76,131.345,99.057z M147.967,96.386c1.591-1.325,2.813-3.153,3.665-5.483
				c0.852-2.331,1.278-4.971,1.278-7.927c0-3.258-0.54-6.232-1.619-8.922c-1.08-2.689-2.585-4.82-4.518-6.393
				c-1.932-1.573-4.111-2.359-6.536-2.359c-2.009,0-3.807,0.616-5.398,1.847c-1.591,1.231-2.833,2.983-3.722,5.256
				c-0.89,2.272-1.335,4.907-1.335,7.899c0,3.22,0.492,6.203,1.477,8.95c0.985,2.747,2.424,4.955,4.32,6.621
				c1.894,1.667,4.148,2.498,6.762,2.498C144.5,98.373,146.375,97.711,147.967,96.386z"/>
			<path fill="#FFFFFF" d="M198.315,96.613c1.212,0.908,2.765,1.4,4.66,1.478c0,1.25-0.114,2.253-0.342,3.013
				c-4.509,0-7.862,0.17-10.058,0.511c-0.986-1.439-1.971-2.964-2.956-4.575c-0.984-1.607-1.647-2.678-1.989-3.209l-0.568-0.969
				c-1.176-1.932-2.255-3.502-3.24-4.714c-0.985-1.212-2.292-2.462-3.921-3.75l-1.876,0.056l-1.705-0.056v8.41
				c0,1.478,0.114,2.596,0.341,3.354c0.228,0.759,0.606,1.289,1.137,1.59c0.53,0.305,1.288,0.477,2.272,0.514
				c0.228,0.606,0.341,1.608,0.341,3.012c-1.629-0.114-4.281-0.17-7.956-0.17c-2.956,0-5.398,0.056-7.33,0.17
				c0-1.326,0.113-2.332,0.34-3.012c1.06-0.076,1.856-0.265,2.387-0.568c0.53-0.303,0.909-0.814,1.136-1.534
				c0.227-0.72,0.341-1.798,0.341-3.239V70.813c0-1.439-0.114-2.529-0.341-3.267c-0.227-0.739-0.616-1.259-1.165-1.563
				c-0.549-0.302-1.355-0.474-2.415-0.512c-0.19-0.718-0.284-1.704-0.284-2.954c1.4,0.113,3.787,0.17,7.16,0.17
				c1.477,0,3.503-0.038,6.08-0.114l3.637-0.057c4.849,0,8.354,0.89,10.513,2.67c2.159,1.782,3.24,4.167,3.24,7.16
				c0,2.728-0.806,5.021-2.415,6.877c-1.611,1.856-3.818,3.145-6.621,3.864c1.478,0.947,2.67,1.96,3.579,3.041
				c0.911,1.079,2.255,3.002,4.036,5.769C195.776,94.133,197.102,95.703,198.315,96.613z M185.671,79.309
				c1.837-1.382,2.756-3.418,2.756-6.109c0-2.424-0.691-4.309-2.074-5.654c-1.383-1.345-3.494-2.017-6.335-2.017
				c-1.175,0-2.407,0.152-3.695,0.454v15.229c0.91,0.113,1.667,0.17,2.274,0.17C181.474,81.383,183.833,80.691,185.671,79.309z"/>
			<path fill="#FFFFFF" d="M236.844,62.517c0,1.022-0.114,2.027-0.342,3.012c-1.06,0.226-1.931,0.823-2.612,1.789
				c-0.683,0.966-1.422,2.51-2.217,4.631c-4.469,11.404-8.41,21.139-11.818,29.208c-0.722,0.228-1.745,0.342-3.069,0.342
				c-4.168-11.252-8.069-21.045-11.707-29.379c-0.871-2.008-1.525-3.429-1.959-4.262c-0.437-0.833-0.854-1.411-1.251-1.734
				c-0.398-0.322-0.938-0.521-1.62-0.596c-0.227-0.758-0.341-1.762-0.341-3.012c1.592,0.113,4.111,0.17,7.559,0.17
				c2.5,0,5.038-0.058,7.615-0.17c0,1.136-0.114,2.141-0.341,3.012c-1.137,0.075-1.962,0.255-2.473,0.539
				c-0.512,0.284-0.767,0.768-0.767,1.449c0,0.759,0.417,2.122,1.25,4.092c2.992,7.124,5.55,13.848,7.672,20.173
				c3.257-7.539,5.909-14.225,7.955-20.059c0.455-1.25,0.683-2.331,0.683-3.24c0-1.742-0.968-2.728-2.897-2.954
				c-0.228-0.72-0.341-1.724-0.341-3.012c1.553,0.113,3.313,0.17,5.283,0.17C233.454,62.688,235.366,62.63,236.844,62.517z"/>
			<path fill="#FFFFFF" d="M247.728,99.057c-2.86-1.705-5.078-4.063-6.648-7.076c-1.573-3.009-2.359-6.411-2.359-10.199
				c0-3.864,0.824-7.273,2.473-10.229c1.648-2.955,3.912-5.256,6.791-6.904c2.877-1.648,6.117-2.472,9.717-2.472
				c3.675,0,6.962,0.815,9.859,2.444c2.898,1.629,5.152,3.902,6.764,6.818c1.609,2.918,2.415,6.29,2.415,10.116
				c0,3.789-0.806,7.208-2.415,10.256c-1.61,3.051-3.856,5.445-6.735,7.188s-6.175,2.614-9.888,2.614
				C253.91,101.613,250.586,100.76,247.728,99.057z M264.349,96.386c1.592-1.325,2.813-3.153,3.666-5.483
				c0.852-2.331,1.278-4.971,1.278-7.927c0-3.258-0.542-6.232-1.621-8.922c-1.079-2.689-2.584-4.82-4.519-6.393
				c-1.93-1.573-4.11-2.359-6.534-2.359c-2.009,0-3.808,0.616-5.397,1.847c-1.593,1.231-2.832,2.983-3.724,5.256
				c-0.892,2.272-1.335,4.907-1.335,7.899c0,3.22,0.492,6.203,1.479,8.95c0.984,2.747,2.424,4.955,4.317,6.621
				c1.894,1.667,4.149,2.498,6.765,2.498C260.882,98.373,262.758,97.711,264.349,96.386z"/>
			<path fill="#EF5B72" d="M300.944,99.084c-2.805-1.686-4.981-4.043-6.535-7.073c-1.555-3.031-2.331-6.479-2.331-10.343
				c0-4.167,0.891-7.719,2.673-10.655c1.78-2.936,4.127-5.144,7.045-6.621c2.916-1.478,6.062-2.216,9.436-2.216
				c2.232,0,4.363,0.246,6.392,0.738c2.027,0.493,4.083,1.232,6.167,2.216c-0.417,2.16-0.626,5.096-0.626,8.809
				c-0.794,0.379-2.045,0.568-3.751,0.568c-0.075-3.524-0.767-5.976-2.074-7.359c-1.307-1.383-3.21-2.075-5.711-2.075
				c-4.055,0-7.066,1.44-9.034,4.318c-1.972,2.881-2.956,6.459-2.956,10.741c0,3.333,0.531,6.328,1.592,8.978
				c1.062,2.654,2.613,4.736,4.66,6.251c2.046,1.516,4.488,2.272,7.33,2.272c1.667,0,3.372-0.265,5.114-0.795
				c1.741-0.53,3.411-1.288,5-2.274c0.266,0.229,0.511,0.551,0.74,0.967c0.227,0.419,0.378,0.796,0.453,1.138
				c-2.082,1.667-4.225,2.908-6.42,3.724c-2.199,0.813-4.719,1.221-7.56,1.221C306.95,101.613,303.747,100.771,300.944,99.084z"/>
			<path fill="#EF5B72" d="M365.159,101.273c-1.479-0.115-3.864-0.172-7.16-0.172c-3.522,0-6.006,0.057-7.444,0.172
				c0-1.289,0.151-2.293,0.456-3.013c0.946-0.114,1.638-0.304,2.072-0.567c0.437-0.266,0.653-0.664,0.653-1.195
				c0-0.566-0.265-1.438-0.795-2.614l-1.876-4.431c-5.872,0-10.684,0.096-14.436,0.284l-1.135,2.955
				c-0.493,1.25-0.738,2.295-0.738,3.127c0,0.759,0.228,1.336,0.681,1.732c0.455,0.397,1.156,0.635,2.104,0.711
				c0.304,0.907,0.456,1.912,0.456,3.012c-1.29-0.114-3.221-0.17-5.798-0.17c-1.1,0-2.729,0.056-4.888,0.17
				c0-1.176,0.15-2.158,0.455-2.957c0.984-0.188,1.751-0.672,2.302-1.446c0.55-0.774,1.298-2.304,2.245-4.575l11.818-29.664
				c0.797-0.188,1.726-0.284,2.785-0.284l13.298,30.119c0.72,1.591,1.306,2.775,1.762,3.552c0.453,0.775,0.882,1.325,1.279,1.647
				c0.396,0.321,0.898,0.521,1.506,0.599C365.025,99.169,365.159,100.174,365.159,101.273z M349.815,86.554l-3.692-8.638
				c-1.023-2.273-1.896-4.526-2.614-6.762c-0.682,2.197-1.46,4.453-2.33,6.762l-3.297,8.638H349.815z"/>
			<path fill="#EF5B72" d="M399.739,96.073c0.547,0.663,1.183,1.146,1.901,1.448c0.72,0.306,1.687,0.492,2.899,0.568
				c0,1.25-0.115,2.253-0.342,3.012c-4.396,0-7.729,0.172-10.002,0.512c-1.173-2.047-2.121-3.836-2.841-5.37
				c-0.722-1.533-1.156-2.472-1.309-2.812c-1.099-2.123-2.063-3.81-2.896-5.06c-0.835-1.25-1.972-2.576-3.411-3.977l-1.763,0.056
				l-1.647-0.056v8.41c0,1.478,0.104,2.596,0.313,3.354c0.209,0.759,0.561,1.289,1.053,1.59c0.492,0.304,1.212,0.477,2.159,0.514
				c0.188,0.606,0.284,1.608,0.284,3.012c-1.592-0.114-4.13-0.17-7.614-0.17c-2.994,0-5.454,0.056-7.388,0.17
				c0-1.326,0.112-2.332,0.342-3.012c1.058-0.076,1.854-0.265,2.387-0.568c0.528-0.303,0.909-0.814,1.136-1.534
				s0.342-1.798,0.342-3.239V70.813c0-1.439-0.115-2.529-0.342-3.267c-0.227-0.739-0.617-1.259-1.165-1.563
				c-0.549-0.302-1.354-0.474-2.415-0.512c-0.188-0.718-0.283-1.704-0.283-2.954c1.398,0.113,3.938,0.17,7.615,0.17l4.487-0.058
				c2.425-0.074,4.301-0.113,5.628-0.113c4.241,0,7.452,0.918,9.632,2.755c2.179,1.838,3.268,4.215,3.268,7.132
				c0,2.728-0.825,5.02-2.473,6.876c-1.649,1.856-3.893,3.145-6.735,3.864c1.326,1.137,2.435,2.33,3.325,3.58
				c0.892,1.25,2.188,3.373,3.893,6.364C398.535,94.416,399.189,95.41,399.739,96.073z M382.604,81.383
				c2.881,0,5.238-0.691,7.075-2.074c1.837-1.383,2.756-3.418,2.756-6.109c0-2.424-0.689-4.309-2.072-5.654
				c-1.384-1.345-3.494-2.017-6.337-2.017c-1.176,0-2.407,0.152-3.694,0.454v15.229C381.24,81.326,381.998,81.383,382.604,81.383z"
				/>
			<path fill="#EF5B72" d="M438.693,92.294c-0.834,2.576-1.422,5.552-1.762,8.922c-3.41-0.075-7.711-0.112-12.899-0.112
				c-7.54,0-12.712,0.056-15.515,0.17c0-1.402,0.113-2.404,0.341-3.012c1.061-0.076,1.856-0.265,2.389-0.568
				c0.529-0.303,0.907-0.853,1.134-1.647c0.229-0.796,0.342-1.989,0.342-3.58V70.813c0-1.4-0.111-2.462-0.342-3.182
				c-0.227-0.72-0.615-1.231-1.164-1.535c-0.548-0.302-1.354-0.492-2.414-0.567c-0.19-0.683-0.284-1.687-0.284-3.012
				c2.575,0.113,6.288,0.17,11.138,0.17c6.1,0,11.365-0.058,15.799-0.17c0.379,4.281,0.775,7.387,1.191,9.319
				c-0.831,0.493-1.971,0.739-3.408,0.739c-0.228-2.159-0.984-3.873-2.273-5.143c-1.288-1.269-3.505-1.903-6.646-1.903h-4.604V80.36
				h2.613c2.199,0,3.713-0.313,4.548-0.937c0.833-0.625,1.27-1.809,1.308-3.551c0.908-0.303,2.026-0.455,3.354-0.455
				c-0.114,1.856-0.171,3.959-0.171,6.308c0,2.539,0.057,4.755,0.171,6.648c-1.401,0-2.482-0.113-3.238-0.341
				c-0.153-1.856-0.646-3.105-1.479-3.75c-0.834-0.644-2.329-0.967-4.49-0.967h-2.613v9.093c0,1.554,0.145,2.727,0.429,3.521
				c0.283,0.795,0.773,1.355,1.477,1.676c0.701,0.324,1.733,0.484,3.096,0.484h0.515c2.232,0,3.985-0.264,5.256-0.796
				c1.269-0.53,2.234-1.287,2.898-2.272c0.662-0.985,1.295-2.406,1.902-4.264C436.76,91.023,437.896,91.537,438.693,92.294z"/>
		</g>
		<path fill="none" d="M121.859,143.284c-0.018-0.021-0.034-0.042-0.052-0.063c0.014,0.018,0.025,0.033,0.04,0.051
			C121.847,143.271,121.854,143.277,121.859,143.284z"/>
		<path fill="none" d="M121.404,142.713c0.023,0.032,0.049,0.064,0.074,0.098C121.453,142.777,121.429,142.745,121.404,142.713z"/>
		<path fill="#FFFFFF" d="M87.993,149.029c0,0-3.979-0.439-1.347-3.854c0,0,13.264-19.321,48.371-15.394
			c0,0,0.618,0.027,1.251-0.069c1.159-0.183,2.368-0.8-0.061-2.854c0,0-20.789-11.881-58.901,3.853c0,0-5.56,2.19-12.199,7.41
			c0,0-12.934,10.971-27.822,12.364c0,0-20.025,2.834-37.285-1.459c0,0,9.123,3.516,22.25,7.026
			c20.271,5.425,50.098,10.843,70.654,3.298c0,0,4.183-1.682,8.033-4.375c0,0,1.931-1.332,4.04-2.67c0,0,3.107-2.443,6.114-3.498
			c0,0,1.102-0.475,1.846-1.272c0.754-0.81,1.138-1.952-0.381-3.272c-0.019-0.019-0.038-0.035-0.056-0.052
			c-0.079-0.063-0.162-0.131-0.251-0.201c-0.012-0.009-0.025-0.019-0.038-0.028c-0.192-0.125-5.168-3.27-13.149,0.972
			c-0.563,0.294-1.088,0.569-1.451,0.763c0,0-2.185,1.268-4.594,2.251C91.183,148.713,89.218,149.298,87.993,149.029z"/>
		<path fill="#C93D66" d="M102.219,161.854c-2.64-0.944-5.222-2.008-7.729-3.207c-0.972,0.455-1.586,0.703-1.586,0.703
			c-5.476,2.01-11.614,3.092-18.049,3.508c2.625,1.623,5.345,3.104,8.145,4.451c5.192-0.547,10.14-1.572,14.641-3.226
			C97.641,164.083,99.679,163.264,102.219,161.854z"/>
	</g>
	<g enable-background="new    ">
		<path fill="#FFFFFF" d="M237.348,107.95l-0.188,0.164v0.387c-0.266,0.047-0.453,0.145-0.563,0.293s-0.227,0.234-0.352,0.258
			c-0.023,0.172-0.094,0.258-0.211,0.258l-0.598,0.527l-0.246,0.41h-0.211c-0.156,0.289-0.285,0.473-0.387,0.551
			c-0.258,0.109-0.418,0.199-0.48,0.27l-0.504,0.598l-0.363,0.27c-0.125,0.094-0.301,0.18-0.527,0.258l-0.234,0.457l-0.328,0.199
			c-0.102,0.063-0.273,0.219-0.516,0.469l-0.246,0.633l-0.832,1.031c-0.242,0.352-0.426,0.68-0.551,0.984l0.141,0.258l-0.141,0.387
			l0.117,0.457l-0.164,0.527l0.094,0.621l0.164,0.188c-0.188,0.266-0.281,0.531-0.281,0.797c0,0.227-0.035,0.402-0.105,0.527
			c0.063,0.438,0.086,0.703,0.07,0.797l-0.164,1.125l0.023,0.551l-0.094,0.246l0.164,0.855l-0.211,0.363l0.141,0.457l-0.141,0.234
			c0.195,0.328,0.27,0.559,0.223,0.691c-0.117,0.359-0.176,0.563-0.176,0.609l0.141,0.645l-0.234,0.598l0.258,0.387l-0.07,0.867
			c-0.023,0.281-0.125,0.449-0.305,0.504l-0.152-0.82l-0.188-0.715l-0.047-0.668l-0.176-0.105l0.129-0.281l-0.129-0.41l0.129-0.75
			l-0.176-0.785l0.07-0.668l-0.023-0.152l0.023-0.527l-0.094-1.125l0.094-0.527l-0.07-0.621l0.176-1.113l-0.223-0.398l0.094-0.48
			c0-0.383-0.055-0.703-0.164-0.961c0.125-0.234,0.188-0.441,0.188-0.621c0-0.125-0.117-0.605-0.352-1.441
			c-0.203-0.148-0.371-0.344-0.504-0.586c-0.117-0.016-0.23-0.086-0.34-0.211l-0.715-0.867l-0.363-0.211l-0.316-0.574l-0.914-0.914
			l-0.164-0.34l-0.457-0.574l-0.574-0.48v-0.258l-0.281-0.211c-0.117-0.086-0.199-0.176-0.246-0.27l-0.211-0.387
			c-0.039-0.078-0.168-0.16-0.387-0.246c-0.469-0.25-0.703-0.664-0.703-1.242l0.023-0.223h0.223
			c0.016-0.109,0.086-0.164,0.211-0.164c0.141,0,0.344,0.039,0.609,0.117l0.117,0.387l0.457,0.199l0.375,0.621l0.539,0.387
			l0.023,0.504c0,0.125,0.117,0.203,0.352,0.234l0.246,0.387l0.352,0.281l1.16,1.734l-0.047,0.188l0.258,0.094l0.34,0.457
			l1.195,1.16c0.086,0.07,0.178,0.18,0.275,0.328s0.166,0.223,0.205,0.223c0.008,0,0.078-0.068,0.211-0.205s0.305-0.396,0.516-0.779
			c0.047-0.289,0.102-0.434,0.164-0.434h0.164c0.07,0,0.105-0.047,0.105-0.141v-0.082c0-0.094,0.109-0.227,0.328-0.398l-0.023-0.082
			c0-0.141,0.176-0.289,0.527-0.445l0.223-0.34v-0.047c0-0.172,0.184-0.27,0.551-0.293c0.125-0.063,0.188-0.133,0.188-0.211
			c0-0.055-0.008-0.094-0.023-0.117c0.25-0.047,0.422-0.125,0.516-0.234l0.398-0.469c0.156-0.305,0.338-0.549,0.545-0.732
			s0.33-0.275,0.369-0.275h0.047l0.211-0.293c0.063-0.094,0.207-0.219,0.434-0.375l0.094-0.363c0.047,0.031,0.121,0.047,0.223,0.047
			c0.141,0,0.211-0.121,0.211-0.363v-0.023c0-0.063,0.121-0.117,0.363-0.164l-0.07-0.141l0.281-0.117h0.27l0.141-0.41l0.574,0.07
			l0.176-0.07l0.141,0.305L237.348,107.95z"/>
		<path fill="#FFFFFF" d="M246.23,114.958l-0.164,0.504l0.094,0.211l-0.082,0.563c-0.008,0.07-0.066,0.195-0.176,0.375v0.281
			l-0.176,0.48l-0.141,0.211c-0.047,0.055-0.125,0.258-0.234,0.609l-0.176,0.07l-0.094,0.316l-0.258,0.164l-0.199,0.434
			l-0.352,0.164l-0.035,0.316l-0.305,0.117c-0.148,0.195-0.244,0.32-0.287,0.375s-0.148,0.109-0.316,0.164s-0.279,0.102-0.334,0.141
			c-0.039,0.25-0.262,0.391-0.668,0.422c-0.094,0.117-0.207,0.176-0.34,0.176c-0.039,0-0.102-0.016-0.188-0.047
			c-0.219,0.195-0.422,0.313-0.609,0.352l-0.188,0.293l-0.316-0.188l-0.07,0.141l-0.352-0.141l-0.844-0.082
			c-0.141-0.281-0.348-0.566-0.621-0.855l0.094-0.316l-0.34-0.867l0.141-0.281l-0.141-0.656l0.141-0.375
			c0-0.039-0.012-0.143-0.035-0.311s-0.035-0.275-0.035-0.322c0-0.164,0.082-0.297,0.246-0.398v-0.129
			c0-0.18,0.047-0.355,0.141-0.527h0.141c0.117-0.133,0.176-0.285,0.176-0.457l-0.07-0.164l0.07-0.363v-0.234
			c0.141-0.172,0.211-0.348,0.211-0.527l-0.07-0.387c0-0.117,0.023-0.211,0.07-0.281c0.242-0.125,0.363-0.246,0.363-0.363
			c0-0.078-0.031-0.16-0.094-0.246l0.234-0.41c0.031-0.063,0.08-0.113,0.146-0.152s0.107-0.066,0.123-0.082l-0.047-0.234
			c0.25-0.023,0.375-0.152,0.375-0.387c0-0.141-0.023-0.285-0.07-0.434c0.531,0,0.883-0.273,1.055-0.82h0.152
			c0.109-0.109,0.188-0.164,0.234-0.164c0.016,0,0.084,0.02,0.205,0.059s0.311,0.059,0.568,0.059l0.375-0.164v0.164
			c0.164,0.016,0.367,0.105,0.609,0.27h0.328c0.078,0.156,0.152,0.234,0.223,0.234l0.047-0.023c0.18,0.281,0.363,0.48,0.551,0.598
			l0.117,0.293l0.223,0.094l0.375,0.551l0.387,1.102v0.223L246.23,114.958z M245.469,115.626c0.094-0.117,0.141-0.215,0.141-0.293
			c0-0.055-0.027-0.111-0.082-0.17s-0.082-0.096-0.082-0.111h0.141c-0.023-0.094-0.078-0.176-0.164-0.246l0.047-0.07l-0.164-0.387
			l0.047-0.527l-0.223-0.375c-0.172-0.109-0.258-0.191-0.258-0.246v-0.07c0-0.063-0.029-0.104-0.088-0.123s-0.088-0.053-0.088-0.1
			v-0.023c0-0.023,0.035-0.125,0.105-0.305l-0.152-0.117l-0.234-0.023l-0.094-0.176l0.094-0.141l-0.316-0.164l-0.234-0.223
			l-0.68-0.281l-0.281-0.059c-0.461,0-0.688,0.129-0.68,0.387l0.035,0.797l-0.48,0.023l-0.75,0.457l-0.07,0.258l-0.27,0.176
			l-0.117,0.691l-0.234,0.164c-0.047,0.023-0.07,0.137-0.07,0.34c0,0.18,0.016,0.324,0.047,0.434l-0.293,0.164
			c-0.063,0.031-0.094,0.184-0.094,0.457c0,0.125-0.074,0.246-0.223,0.363v0.234l-0.211,0.34v0.211l-0.07,0.152l0.047,0.328
			l-0.316,0.773l0.105,0.258v0.563l-0.105,0.398l0.023,0.586l0.352,0.457c0.039,0.063,0.18,0.148,0.422,0.258l0.07,0.117
			l0.164-0.047l0.152,0.047l0.281-0.117l0.574,0.023l0.27-0.07l0.07-0.164l0.246,0.023c0.25,0,0.375-0.082,0.375-0.246l0.34,0.094
			l0.07-0.188l0.223-0.023l0.117-0.27c0.172-0.133,0.266-0.242,0.281-0.328h0.387l0.117-0.246l0.41-0.363l0.152-0.223
			c0.063-0.086,0.133-0.152,0.211-0.199l0.34-0.176c0.039-0.219,0.109-0.441,0.211-0.668l-0.047-0.211l0.34-0.152l-0.047-0.117
			c0.094-0.133,0.18-0.246,0.258-0.34h-0.117c0.063-0.086,0.094-0.156,0.094-0.211c0-0.047-0.012-0.105-0.035-0.176
			s-0.035-0.117-0.035-0.141c0-0.102,0.023-0.211,0.07-0.328s0.07-0.191,0.07-0.223
			C245.563,115.688,245.531,115.649,245.469,115.626z"/>
		<path fill="#FFFFFF" d="M259.684,119.517c0.109-0.016,0.238-0.023,0.387-0.023c0.172,0,0.258,0.063,0.258,0.188
			c0,0.109-0.086,0.23-0.258,0.363l-0.176,0.094l-0.117,0.129c-0.031,0.039-0.168,0.125-0.41,0.258l-0.387,0.117
			c-0.094,0.094-0.355,0.141-0.785,0.141c-0.039,0-0.156-0.031-0.352-0.094s-0.32-0.117-0.375-0.164l-0.785-0.703l-0.176-0.738
			l-0.234-0.223v-0.117c0-0.234-0.055-0.441-0.164-0.621l0.023-0.574c0.063-0.281,0.094-0.449,0.094-0.504
			c0-0.18-0.047-0.355-0.141-0.527l0.07-1.078l-0.27,0.141l-0.164,0.258l-0.223,0.152c-0.078,0.047-0.156,0.141-0.234,0.281
			l-0.211,0.023c-0.18,0.156-0.27,0.316-0.27,0.48c-0.234,0.102-0.383,0.24-0.445,0.416s-0.184,0.359-0.363,0.551
			s-0.316,0.303-0.41,0.334s-0.168,0.078-0.223,0.141l-0.691,0.844h-0.07l-0.563,0.668l-0.445,0.246l-0.199,0.305
			c-0.273,0.086-0.602,0.223-0.984,0.41l-0.363-0.234c-0.039,0.016-0.094,0.023-0.164,0.023c-0.094,0-0.141-0.043-0.141-0.129
			c0-0.063,0.008-0.109,0.023-0.141l-0.246-0.141c0-0.07,0.027-0.152,0.082-0.246l-0.316-0.305l0.188-0.246h-0.258l-0.176-0.457
			l0.176-0.141l-0.223-0.316c0-0.391,0.027-0.598,0.082-0.621l0.012-0.41c0.008-0.141,0.051-0.309,0.129-0.504l-0.199-0.141
			c0.133-0.18,0.199-0.332,0.199-0.457c0-0.094-0.039-0.223-0.117-0.387c0.094-0.047,0.141-0.172,0.141-0.375
			c0-0.078-0.008-0.184-0.023-0.316l-0.094-0.797l0.281-1.676c-0.016-0.289-0.055-0.594-0.117-0.914l-0.094-0.41
			c0-0.25,0.137-0.375,0.41-0.375l0.352,0.094l0.176,0.211l-0.105,0.504l-0.047,1.207l0.047,0.762l-0.164,0.387l0.094,0.234
			l-0.094,0.363v0.316c-0.063,0.023-0.082,0.072-0.059,0.146s0.035,0.127,0.035,0.158c0,0.094-0.031,0.184-0.094,0.27l0.164,0.211
			l-0.234,0.293l0.141,0.211l-0.07,0.316l0.07,0.387v0.457l0.141,0.164l-0.117,0.574c0,0.094,0.047,0.215,0.141,0.363l-0.07,0.258
			l0.117,0.34c0.133,0.078,0.301,0.23,0.504,0.457c0.172-0.023,0.324-0.102,0.457-0.234s0.301-0.27,0.504-0.41
			c0-0.016-0.031-0.023-0.094-0.023c0.258-0.117,0.387-0.246,0.387-0.387c0.18-0.023,0.309-0.055,0.387-0.094l0.047-0.293
			l0.234-0.094c0.18-0.227,0.445-0.379,0.797-0.457l0.023-0.234l0.434-0.363c0.039-0.305,0.207-0.465,0.504-0.48l0.094-0.316
			l0.211-0.094l0.316-0.457h0.141v-0.141l0.223-0.117l0.141-0.34c0.195-0.102,0.387-0.191,0.574-0.27l0.094-0.258l0.176-0.07v-0.152
			l0.094-0.023c0.039-0.383,0.176-0.574,0.41-0.574l-0.07-0.07l0.445-1.324h0.105v-0.328h0.023c0.055,0,0.191-0.289,0.41-0.867
			l0.422-0.047l-0.047,0.094l0.246,0.457l-0.199,0.891l-0.352,0.527l-0.246,0.891l-0.305,0.211v0.527l-0.176,0.34l0.047,0.387
			l-0.164,0.164l0.047,1.055l-0.094,1.301l0.07,0.141l-0.023,0.188h0.07v0.363c0.258,0.375,0.387,0.613,0.387,0.715l0.34,0.082
			l0.07,0.211c0.219,0.094,0.41,0.184,0.574,0.27l0.316-0.023l0.258,0.07l0.375-0.152
			C259.309,119.798,259.473,119.688,259.684,119.517z"/>
		<path fill="#FFFFFF" d="M270.383,111.278l-0.07,0.293l-0.703,0.094l-0.457,0.34l-0.305,0.047l-0.387,0.234l-0.387,0.176
			c-0.188,0.164-0.34,0.266-0.457,0.305v0.117l-0.352,0.176l-0.246,0.387h-0.258l-0.129,0.375l-0.27,0.176
			c-0.109,0.063-0.195,0.148-0.258,0.258l-0.234,0.434c-0.18,0.094-0.285,0.309-0.316,0.645l-0.117-0.047l-0.047,0.152l-0.176,0.117
			l-0.164,0.41c-0.172,0.242-0.258,0.426-0.258,0.551l-0.223,0.094v0.504c-0.047,0.055-0.086,0.141-0.117,0.258l0.047,0.082
			l-0.234,0.094l0.07,0.188c-0.023,0.156-0.145,0.445-0.363,0.867l0.117,0.305l-0.234,0.387c0.031,0.156,0.047,0.277,0.047,0.363
			l-0.047,0.387l0.105,0.422c0.008,0.023,0.043,0.07,0.105,0.141l0.176,0.176c-0.102,0.195-0.199,0.332-0.293,0.41l-0.316-0.117
			l0.047,0.211l-0.527-0.094v-0.316l-0.07-0.211l0.07-0.387l-0.07-0.164l0.047-0.82l-0.047-0.551
			c-0.109-0.039-0.164-0.086-0.164-0.141c0-0.063,0.055-0.16,0.164-0.293v-0.352c0-0.188-0.008-0.324-0.023-0.41l0.094-0.117
			l-0.094-0.457l0.07-0.363l-0.07-0.223l0.07-0.645l-0.117-0.188l0.07-0.223l-0.141-0.48l0.047-0.375
			c0-0.102-0.016-0.246-0.047-0.434l0.07-0.117l-0.141-0.82l-0.176-0.117l0.176-0.41c-0.164-0.227-0.246-0.492-0.246-0.797v-0.328
			c-0.07-0.078-0.117-0.152-0.141-0.223c0.109-0.148,0.309-0.277,0.598-0.387l0.176,0.047c0.031,0.195,0.117,0.383,0.258,0.563
			l-0.047,0.598l0.234,1.816c0,0.117-0.047,0.223-0.141,0.316l0.117,0.504l-0.07,0.363l0.07,0.387l-0.047,0.305l0.176,0.363
			l-0.105,0.07l0.082,0.551l0.188,0.047l0.082-0.469c0.008-0.055,0.102-0.195,0.281-0.422c0.203-0.18,0.305-0.379,0.305-0.598
			v-0.141l0.152-0.07c0.023,0,0.043-0.029,0.059-0.088s0.043-0.088,0.082-0.088h0.07l0.141-0.469l0.363-0.246l0.023-0.141h0.164
			l-0.07-0.27l0.363-0.164l0.023-0.293l0.34-0.047c0.172-0.141,0.289-0.293,0.352-0.457l0.223-0.047
			c0.031-0.063,0.176-0.207,0.434-0.434c0.055,0,0.094-0.023,0.117-0.07l0.387-0.211l0.094-0.176l0.211-0.117
			c0.414-0.305,0.695-0.457,0.844-0.457h0.094c0.141,0,0.254-0.039,0.34-0.117l0.211,0.07c0.109-0.078,0.199-0.117,0.27-0.117
			C270.215,111.2,270.367,111.247,270.383,111.278z"/>
		<path fill="#FFFFFF" d="M291.406,110.728l-0.07,0.34l0.023,0.234l-0.293,1.207l-0.316,0.375l-0.117,0.539l-0.234,0.352
			l-0.387,0.961l-0.434,0.82l-0.691,1.125l-0.129,0.363l-0.375,0.691l-0.387,0.938l-0.727,1.441
			c-0.109,0.453-0.195,0.715-0.258,0.785c-0.203-0.078-0.371-0.156-0.504-0.234l-0.34-1.125l-0.434-0.797v-0.234l-0.328-0.867
			l-0.152-0.188l-0.809-1.875l-0.68-1.371c-0.031-0.031-0.086-0.047-0.164-0.047s-0.148,0.016-0.211,0.047l-0.457,0.773l-0.41,0.352
			l-0.551,0.844l-0.41,0.504l-0.211,0.691l-0.551,0.75l-0.059,0.281c-0.25,0.539-0.375,0.828-0.375,0.867v0.316l-0.176,0.305
			l-0.258,0.703l0.047,0.094c-0.031-0.016-0.078-0.023-0.141-0.023c-0.055,0-0.168,0.039-0.34,0.117
			c-0.039-0.063-0.121-0.117-0.246-0.164v-0.117l-0.188-0.27l-0.117-0.645l-0.199-0.41v-0.316l-0.023-0.164l-0.328-1.102
			l-0.129-0.82l-0.164-0.188l0.023-0.246l-0.234-0.668v-0.234l-0.246-0.703l-0.281-0.434l0.047-0.48l-0.047-0.234l-0.246-0.703
			l-0.047-0.305c-0.016-0.094-0.076-0.232-0.182-0.416s-0.158-0.334-0.158-0.451c0-0.078,0.008-0.141,0.023-0.188l-0.164-0.07
			l-0.316-0.773l0.316-0.094c0.016-0.141,0.051-0.215,0.105-0.223l0.328-0.07l0.141,0.223h0.246l0.094,0.41l0.117,0.094
			l-0.047,0.258l0.07,0.246l-0.07,0.258l0.27,0.48l-0.047,0.34l0.305,1.148l-0.047,0.293l0.141,0.809l0.316,0.82l0.164,1.102
			l0.223,0.27v0.504c0.133,0.469,0.203,0.797,0.211,0.984l0.246,0.211l0.094,0.316h0.211l1.137-2.016
			c0.125,0,0.188-0.145,0.188-0.434c0.188-0.117,0.281-0.238,0.281-0.363c0-0.164,0.051-0.332,0.152-0.504
			c0.094-0.094,0.141-0.195,0.141-0.305c0.133,0.078,0.246,0.117,0.34,0.117c-0.047-0.102-0.07-0.199-0.07-0.293
			c0-0.125,0.063-0.188,0.188-0.188l0.07,0.023c0.016,0,0.029-0.008,0.041-0.023s0.008-0.031-0.012-0.047s-0.029-0.031-0.029-0.047
			c0-0.055,0.047-0.113,0.141-0.176l-0.047-0.211v-0.117c0.023-0.07,0.055-0.105,0.094-0.105s0.059,0.035,0.059,0.105
			c0.102-0.086,0.18-0.129,0.234-0.129c0.047,0,0.078,0.008,0.094,0.023l-0.047-0.328l0.164-0.223l-0.07-0.328l0.129,0.047
			l0.047-0.176l0.211-0.094l-0.094-0.117l0.094-0.094l0.023-0.117h0.27c-0.211-0.234-0.316-0.469-0.316-0.703
			c0-0.141,0.047-0.309,0.141-0.504l0.387-0.047c0.141,0.148,0.285,0.324,0.434,0.527l0.082,0.516
			c0.008,0.055,0.078,0.195,0.211,0.422l-0.059,0.27l0.176,0.574v0.305l0.434,0.773v0.211l0.164,0.152l0.387,1.031l0.047,0.422
			l0.258,0.363l0.727,1.711l0.434,0.094l0.762-1.605l0.293-0.246l0.164-0.527l0.316-0.164v-0.41
			c0.336-0.219,0.504-0.434,0.504-0.645v-0.387h0.117v-0.117l0.188-0.152l0.41-0.809c0.023-0.203,0.145-0.461,0.363-0.773
			l-0.047-0.234l0.34-0.48l0.281-0.773c-0.188-0.602-0.281-1.059-0.281-1.371c0-0.234,0.07-0.375,0.211-0.422l0.234,0.094
			c0.016,0.07,0.121,0.117,0.316,0.141l0.047,0.246L291.406,110.728z"/>
		<path fill="#FFFFFF" d="M299.457,118.509c0.117,0.18,0.176,0.313,0.176,0.398c0,0.063-0.072,0.195-0.217,0.398
			s-0.256,0.418-0.334,0.645l-0.176,0.023l-0.258,0.504l-0.293,0.047l-0.645,0.434l-0.117,0.258l-0.199-0.023l-0.211,0.246h-0.34
			l-0.07,0.117l-0.164-0.023c-0.172,0-0.324,0.078-0.457,0.234L296,121.649c-0.164,0.078-0.297,0.117-0.398,0.117
			c-0.18,0-0.324-0.039-0.434-0.117c-0.078,0.016-0.184,0.023-0.316,0.023l-0.141-0.117c-0.43-0.023-0.719-0.145-0.867-0.363v-0.293
			l-0.387-0.211l-0.094-0.246c-0.031-0.078-0.117-0.18-0.258-0.305v-0.188l-0.27-1.137l0.047-0.809l0.094-0.457v-0.504l0.129-0.434
			l-0.047-0.316c0.086-0.07,0.141-0.158,0.164-0.264s0.07-0.225,0.141-0.357c-0.031-0.141-0.063-0.34-0.094-0.598l0.211-0.176
			l-0.211-0.234c0.109-0.18,0.164-0.293,0.164-0.34l-0.117-0.715c0-0.172,0.023-0.34,0.07-0.504
			c0.094,0.141,0.199,0.211,0.316,0.211c0.063,0,0.215-0.031,0.457-0.094c-0.016-0.047-0.023-0.102-0.023-0.164
			c0-0.109,0.063-0.207,0.188-0.293c0.125-0.391,0.301-0.758,0.527-1.102c0.148-0.117,0.223-0.277,0.223-0.48h0.117l0.117-0.234
			l0.141-0.059c0.031-0.102,0.113-0.219,0.246-0.352c0.18-0.055,0.395-0.238,0.645-0.551c0.031,0.016,0.098,0.023,0.199,0.023
			c0.023,0,0.086-0.09,0.188-0.27c0.273-0.094,0.418-0.141,0.434-0.141c0.07,0,0.141,0.047,0.211,0.141l0.223-0.047l0.117,0.094
			h0.141c0.086,0.258,0.246,0.387,0.48,0.387h0.07c0.023,0.109,0.074,0.191,0.152,0.246l-0.105,0.047
			c0.273,0.133,0.41,0.441,0.41,0.926l-0.07,0.27l0.07,0.668l-0.117,0.105l-0.27,0.715l-0.48,0.598l-0.023,0.34
			c-0.57,0.469-1.039,0.789-1.406,0.961c-0.031,0.094-0.082,0.141-0.152,0.141c-0.031,0-0.094-0.016-0.188-0.047l-0.527,0.363
			h-0.316l-0.457,0.211l-0.199-0.117c-0.055-0.031-0.219-0.063-0.492-0.094c-0.242,0.227-0.363,0.52-0.363,0.879l-0.164,0.199
			c-0.031,0.297-0.07,0.504-0.117,0.621l-0.129,0.07l0.129,0.867l-0.129,0.117l0.023,0.27l-0.023,0.328
			c0,0.055,0.02,0.203,0.059,0.445s0.102,0.383,0.188,0.422c-0.039,0.109,0.037,0.242,0.229,0.398s0.396,0.266,0.615,0.328v0.141
			l0.621,0.094l0.891,0.047l0.598-0.07c0.242-0.172,0.418-0.277,0.527-0.316l0.188-0.281h0.223l0.023-0.117
			c0.344-0.117,0.533-0.197,0.568-0.24s0.053-0.084,0.053-0.123c0.047-0.094,0.117-0.141,0.211-0.141l0.07-0.152
			c0.352-0.055,0.57-0.285,0.656-0.691C299.254,118.54,299.348,118.509,299.457,118.509z M297.488,113.036
			c0.063-0.008,0.168-0.105,0.316-0.293l0.07-0.281c0.195-0.328,0.309-0.537,0.34-0.627s0.047-0.201,0.047-0.334
			s-0.055-0.367-0.164-0.703l-0.48-0.164c-0.125,0.031-0.207,0.047-0.246,0.047l-0.141-0.047c-0.117,0-0.199,0.07-0.246,0.211
			c-0.141,0-0.355,0.059-0.645,0.176l-0.07,0.164c-0.031-0.016-0.063-0.023-0.094-0.023c-0.023,0-0.045,0.004-0.064,0.012
			s-0.037,0.02-0.053,0.035s-0.031,0.033-0.047,0.053s-0.029,0.045-0.041,0.076s-0.023,0.064-0.035,0.1s-0.023,0.07-0.035,0.105
			s-0.061,0.104-0.146,0.205l-0.176,0.211l-0.34,0.645l-0.176,0.152c-0.055,0.047-0.098,0.148-0.129,0.305s-0.242,0.531-0.633,1.125
			l0.164,0.094l0.082,0.199l0.398,0.117c0.227-0.156,0.469-0.262,0.727-0.316l0.07-0.141c0.086,0.031,0.148,0.047,0.188,0.047
			c0.078,0,0.152-0.047,0.223-0.141l0.281-0.047l0.176-0.293h0.164l0.117-0.258c0.211,0,0.41-0.098,0.598-0.293V113.036z"/>
		<path fill="#FFFFFF" d="M307.063,117.735c0.102,0.07,0.152,0.145,0.152,0.223c0,0.195-0.051,0.305-0.152,0.328
			c-0.188,0.305-0.379,0.457-0.574,0.457c0,0.07-0.262,0.336-0.785,0.797c-0.156,0.039-0.26,0.084-0.311,0.135
			s-0.158,0.15-0.322,0.299c-0.219,0.008-0.363,0.102-0.434,0.281l-0.234,0.07l-0.094-0.047l-0.07,0.199h-0.07
			c-0.117,0-0.285,0.047-0.504,0.141s-0.355,0.148-0.41,0.164l-0.246,0.094h-0.164l-0.141-0.211l-0.223-0.188
			c-0.094-0.242-0.215-0.453-0.363-0.633l-0.07-0.574l0.023-0.281l-0.117-0.152l0.023-0.691l-0.023-0.598l0.023-0.293
			c0.047-0.07,0.07-0.133,0.07-0.188c0-0.109-0.055-0.254-0.164-0.434c0.063-0.664,0.094-1.031,0.094-1.102
			c0-0.141-0.063-0.285-0.188-0.434l0.188-0.094l0.07-0.914L302,113.704l0.176-0.434l-0.129-0.48
			c0.133-0.172,0.199-0.379,0.199-0.621v-0.797l0.07-0.188l-0.023-1.172l0.07-1.16c-0.109-0.281-0.148-0.582-0.117-0.902l0.07-0.727
			l-0.07-0.258l0.117-1.09c0.086-0.031,0.178-0.07,0.275-0.117s0.158-0.07,0.182-0.07c0.016,0,0.047,0.016,0.094,0.047l0.117,0.387
			l0.246,0.211l-0.176,0.246v0.094c0,0.094,0.027,0.191,0.082,0.293c-0.016,0.266-0.074,0.398-0.176,0.398l0.07,0.129
			c0.023,0.492,0.066,0.828,0.129,1.008l-0.199,0.621l0.152,0.211c-0.18,0.313-0.27,0.617-0.27,0.914
			c0,0.156,0.07,0.254,0.211,0.293l-0.164,0.457c0.063,0.148,0.094,0.242,0.094,0.281c0,0.078-0.031,0.184-0.094,0.316l0.047,0.281
			l-0.117,0.773l-0.012,0.363c-0.008,0.109-0.074,0.363-0.199,0.762l0.117,0.504l-0.07,0.914l-0.129,0.094l0.152,0.293l-0.105,0.457
			l-0.094,0.715l0.094,0.176l-0.094,0.07c0.102,0.125,0.152,0.316,0.152,0.574c0,0.047-0.035,0.141-0.105,0.281l0.105,0.27
			l-0.059,0.363l0.105,0.258l-0.047,0.199l0.258,0.785l0.293,0.117c0.281-0.141,0.465-0.211,0.551-0.211l0.141,0.023l0.328-0.281
			c0.039-0.039,0.137-0.082,0.293-0.129c0.078-0.141,0.215-0.219,0.41-0.234l0.117-0.129l0.176,0.023l0.047-0.117l0.234-0.07
			l0.223-0.164l0.234-0.07c0.016-0.008,0.092-0.078,0.229-0.211s0.26-0.23,0.369-0.293c0-0.07,0.051-0.129,0.152-0.176
			c0.023,0.031,0.055,0.047,0.094,0.047C306.883,117.853,306.961,117.813,307.063,117.735z"/>
		<path fill="#FFFFFF" d="M314.363,117.735c0.102,0.07,0.152,0.145,0.152,0.223c0,0.195-0.051,0.305-0.152,0.328
			c-0.188,0.305-0.379,0.457-0.574,0.457c0,0.07-0.262,0.336-0.785,0.797c-0.156,0.039-0.26,0.084-0.311,0.135
			s-0.158,0.15-0.322,0.299c-0.219,0.008-0.363,0.102-0.434,0.281l-0.234,0.07l-0.094-0.047l-0.07,0.199h-0.07
			c-0.117,0-0.285,0.047-0.504,0.141s-0.355,0.148-0.41,0.164l-0.246,0.094h-0.164l-0.141-0.211l-0.223-0.188
			c-0.094-0.242-0.215-0.453-0.363-0.633l-0.07-0.574l0.023-0.281l-0.117-0.152l0.023-0.691l-0.023-0.598l0.023-0.293
			c0.047-0.07,0.07-0.133,0.07-0.188c0-0.109-0.055-0.254-0.164-0.434c0.063-0.664,0.094-1.031,0.094-1.102
			c0-0.141-0.063-0.285-0.188-0.434l0.188-0.094l0.07-0.914l-0.047-0.387l0.176-0.434l-0.129-0.48
			c0.133-0.172,0.199-0.379,0.199-0.621v-0.797l0.07-0.188l-0.023-1.172l0.07-1.16c-0.109-0.281-0.148-0.582-0.117-0.902l0.07-0.727
			l-0.07-0.258l0.117-1.09c0.086-0.031,0.178-0.07,0.275-0.117s0.158-0.07,0.182-0.07c0.016,0,0.047,0.016,0.094,0.047l0.117,0.387
			l0.246,0.211l-0.176,0.246v0.094c0,0.094,0.027,0.191,0.082,0.293c-0.016,0.266-0.074,0.398-0.176,0.398l0.07,0.129
			c0.023,0.492,0.066,0.828,0.129,1.008l-0.199,0.621l0.152,0.211c-0.18,0.313-0.27,0.617-0.27,0.914
			c0,0.156,0.07,0.254,0.211,0.293l-0.164,0.457c0.063,0.148,0.094,0.242,0.094,0.281c0,0.078-0.031,0.184-0.094,0.316l0.047,0.281
			l-0.117,0.773l-0.012,0.363c-0.008,0.109-0.074,0.363-0.199,0.762l0.117,0.504l-0.07,0.914l-0.129,0.094l0.152,0.293l-0.105,0.457
			l-0.094,0.715l0.094,0.176l-0.094,0.07c0.102,0.125,0.152,0.316,0.152,0.574c0,0.047-0.035,0.141-0.105,0.281l0.105,0.27
			l-0.059,0.363l0.105,0.258l-0.047,0.199l0.258,0.785l0.293,0.117c0.281-0.141,0.465-0.211,0.551-0.211l0.141,0.023l0.328-0.281
			c0.039-0.039,0.137-0.082,0.293-0.129c0.078-0.141,0.215-0.219,0.41-0.234l0.117-0.129l0.176,0.023l0.047-0.117l0.234-0.07
			l0.223-0.164l0.234-0.07c0.016-0.008,0.092-0.078,0.229-0.211s0.26-0.23,0.369-0.293c0-0.07,0.051-0.129,0.152-0.176
			c0.023,0.031,0.055,0.047,0.094,0.047C314.184,117.853,314.262,117.813,314.363,117.735z"/>
		<path fill="#FFFFFF" d="M330.02,117.021c0.031,0.125-0.066,0.25-0.293,0.375l0.035,0.082c0,0.078-0.105,0.244-0.316,0.498
			s-0.316,0.447-0.316,0.58l-0.258,0.07c-0.008,0.328-0.152,0.52-0.434,0.574c-0.023,0.094-0.063,0.141-0.117,0.141h-0.047
			c-0.023,0.133-0.113,0.199-0.27,0.199l-0.141,0.281l-0.34,0.07l-0.281,0.188c-0.039,0.023-0.09,0.043-0.152,0.059l-0.527,0.094
			l-0.188-0.023l-0.176,0.023l-0.07-0.094l-0.211-0.023l-0.27-0.34h-0.117c-0.063-0.063-0.094-0.148-0.094-0.258
			c-0.258-0.281-0.387-0.5-0.387-0.656v-0.188l-0.164-0.316v-0.141l0.117-0.07l-0.094-0.34l-0.176-0.434l0.035-0.645l-0.246-0.387
			v-0.598c-0.227-1.164-0.34-1.875-0.34-2.133v-0.094c-0.031-0.125-0.047-0.215-0.047-0.27c0-0.063,0.008-0.109,0.023-0.141
			c-0.18-0.273-0.273-0.496-0.281-0.668l-0.117-0.105l-0.504,0.527l-0.246,0.34l-0.844,1.008l-0.328,0.598
			c-0.117,0.258-0.211,0.447-0.281,0.568s-0.227,0.299-0.469,0.533l0.07,0.223l-0.164,0.457l-0.188,0.023v0.211h-0.129l-0.457,0.551
			c-0.016,0.266-0.117,0.418-0.305,0.457c-0.07,0.102-0.133,0.25-0.188,0.445s-0.145,0.297-0.27,0.305l-0.094,0.094
			c-0.148,0.258-0.287,0.455-0.416,0.592s-0.311,0.291-0.545,0.463c-0.055,0.266-0.152,0.426-0.293,0.48l-0.023,0.117
			c-0.008,0.109-0.047,0.213-0.117,0.311s-0.262,0.186-0.574,0.264c-0.117-0.016-0.207-0.148-0.27-0.398s-0.156-0.402-0.281-0.457
			l-0.07-0.152l0.188-0.305l-0.023-0.293l0.117-0.117l-0.117-0.211l0.023-0.293l-0.188-0.527l0.164-0.316l-0.094-0.328
			c0.109-0.219,0.164-0.547,0.164-0.984v-0.129c0-0.039-0.047-0.133-0.141-0.281c0.125-0.102,0.188-0.199,0.188-0.293l-0.047-0.375
			l0.141-0.914l-0.094-0.176l0.023-0.375l-0.117-0.223l0.094-0.762l-0.047-0.27l0.07-0.434l-0.07-0.621l0.164-0.316
			c0.289,0.086,0.447,0.145,0.475,0.176s0.047,0.104,0.059,0.217s0.018,0.295,0.018,0.545l0.199,0.316l-0.07,0.457l0.094,0.984
			l-0.164,0.527l0.07,0.621v0.293l-0.223,0.352l0.152,0.504c-0.047,0.07-0.105,0.289-0.176,0.656l0.117,0.281
			c-0.133,0.43-0.195,0.742-0.188,0.938l0.023,0.867l0.07,0.117l0.293-0.141h0.234l0.129-0.527c0.18-0.055,0.289-0.145,0.328-0.27
			c0.023-0.188,0.145-0.281,0.363-0.281c0.023-0.18,0.078-0.301,0.164-0.363c0.063,0,0.137-0.113,0.223-0.34
			c0.164-0.164,0.293-0.332,0.387-0.504v-0.328h0.023c0.063,0,0.135-0.057,0.217-0.17s0.186-0.17,0.311-0.17
			c0.055-0.203,0.125-0.348,0.211-0.434l0.34-0.41l0.305-0.668c-0.031-0.125-0.047-0.207-0.047-0.246c0-0.047,0.023-0.07,0.07-0.07
			c0.32-0.211,0.48-0.418,0.48-0.621v-0.293c0.242-0.094,0.363-0.18,0.363-0.258c0-0.031-0.012-0.076-0.035-0.135
			s-0.035-0.096-0.035-0.111c0-0.078,0.031-0.117,0.094-0.117c0.055,0,0.117,0.023,0.188,0.07c0.117-0.43,0.297-0.645,0.539-0.645
			c0.047,0,0.117,0.016,0.211,0.047c0-0.227,0.07-0.41,0.211-0.551c0.031-0.102,0.219-0.223,0.563-0.363l0.117-0.188h0.094
			c0.133,0.18,0.246,0.293,0.34,0.34l0.047,0.164l0.117,0.047l0.047,0.457l0.316,0.188l-0.105,0.41l0.176,0.75v0.691l0.164,0.82
			l0.07,0.855l0.246,0.797l0.047,0.797c0.008,0.016,0.049,0.092,0.123,0.229s0.127,0.314,0.158,0.533l0.105,0.07v0.363l0.211,0.234
			l-0.047,0.176l0.164,0.094v0.117c0.148,0.094,0.277,0.141,0.387,0.141c0.133,0,0.254-0.031,0.363-0.094
			c0.055,0.031,0.094,0.047,0.117,0.047c0.07,0,0.141-0.063,0.211-0.188c0.227-0.023,0.34-0.086,0.34-0.188v-0.059
			c0.023-0.055,0.184-0.133,0.48-0.234c0.078-0.094,0.16-0.172,0.246-0.234l-0.023-0.059c0.016-0.039,0.045-0.084,0.088-0.135
			s0.119-0.121,0.229-0.211s0.184-0.174,0.223-0.252l0.129-0.258c0.102-0.141,0.254-0.367,0.457-0.68l0.328-0.164h0.223
			L330.02,117.021z"/>
		<path fill="#FFFFFF" d="M337.625,118.509c0.117,0.18,0.176,0.313,0.176,0.398c0,0.063-0.072,0.195-0.217,0.398
			s-0.256,0.418-0.334,0.645l-0.176,0.023l-0.258,0.504l-0.293,0.047l-0.645,0.434l-0.117,0.258l-0.199-0.023l-0.211,0.246h-0.34
			l-0.07,0.117l-0.164-0.023c-0.172,0-0.324,0.078-0.457,0.234l-0.152-0.117c-0.164,0.078-0.297,0.117-0.398,0.117
			c-0.18,0-0.324-0.039-0.434-0.117c-0.078,0.016-0.184,0.023-0.316,0.023l-0.141-0.117c-0.43-0.023-0.719-0.145-0.867-0.363v-0.293
			l-0.387-0.211l-0.094-0.246c-0.031-0.078-0.117-0.18-0.258-0.305v-0.188l-0.27-1.137l0.047-0.809l0.094-0.457v-0.504l0.129-0.434
			l-0.047-0.316c0.086-0.07,0.141-0.158,0.164-0.264s0.07-0.225,0.141-0.357c-0.031-0.141-0.063-0.34-0.094-0.598l0.211-0.176
			l-0.211-0.234c0.109-0.18,0.164-0.293,0.164-0.34l-0.117-0.715c0-0.172,0.023-0.34,0.07-0.504
			c0.094,0.141,0.199,0.211,0.316,0.211c0.063,0,0.215-0.031,0.457-0.094c-0.016-0.047-0.023-0.102-0.023-0.164
			c0-0.109,0.063-0.207,0.188-0.293c0.125-0.391,0.301-0.758,0.527-1.102c0.148-0.117,0.223-0.277,0.223-0.48h0.117l0.117-0.234
			l0.141-0.059c0.031-0.102,0.113-0.219,0.246-0.352c0.18-0.055,0.395-0.238,0.645-0.551c0.031,0.016,0.098,0.023,0.199,0.023
			c0.023,0,0.086-0.09,0.188-0.27c0.273-0.094,0.418-0.141,0.434-0.141c0.07,0,0.141,0.047,0.211,0.141l0.223-0.047l0.117,0.094
			h0.141c0.086,0.258,0.246,0.387,0.48,0.387h0.07c0.023,0.109,0.074,0.191,0.152,0.246l-0.105,0.047
			c0.273,0.133,0.41,0.441,0.41,0.926l-0.07,0.27l0.07,0.668l-0.117,0.105l-0.27,0.715l-0.48,0.598l-0.023,0.34
			c-0.57,0.469-1.039,0.789-1.406,0.961c-0.031,0.094-0.082,0.141-0.152,0.141c-0.031,0-0.094-0.016-0.188-0.047l-0.527,0.363
			h-0.316l-0.457,0.211l-0.199-0.117c-0.055-0.031-0.219-0.063-0.492-0.094c-0.242,0.227-0.363,0.52-0.363,0.879l-0.164,0.199
			c-0.031,0.297-0.07,0.504-0.117,0.621l-0.129,0.07l0.129,0.867l-0.129,0.117l0.023,0.27l-0.023,0.328
			c0,0.055,0.02,0.203,0.059,0.445s0.102,0.383,0.188,0.422c-0.039,0.109,0.037,0.242,0.229,0.398s0.396,0.266,0.615,0.328v0.141
			l0.621,0.094l0.891,0.047l0.598-0.07c0.242-0.172,0.418-0.277,0.527-0.316l0.188-0.281h0.223l0.023-0.117
			c0.344-0.117,0.533-0.197,0.568-0.24s0.053-0.084,0.053-0.123c0.047-0.094,0.117-0.141,0.211-0.141l0.07-0.152
			c0.352-0.055,0.57-0.285,0.656-0.691C337.422,118.54,337.516,118.509,337.625,118.509z M335.656,113.036
			c0.063-0.008,0.168-0.105,0.316-0.293l0.07-0.281c0.195-0.328,0.309-0.537,0.34-0.627s0.047-0.201,0.047-0.334
			s-0.055-0.367-0.164-0.703l-0.48-0.164c-0.125,0.031-0.207,0.047-0.246,0.047l-0.141-0.047c-0.117,0-0.199,0.07-0.246,0.211
			c-0.141,0-0.355,0.059-0.645,0.176l-0.07,0.164c-0.031-0.016-0.063-0.023-0.094-0.023c-0.023,0-0.045,0.004-0.064,0.012
			s-0.037,0.02-0.053,0.035s-0.031,0.033-0.047,0.053s-0.029,0.045-0.041,0.076s-0.023,0.064-0.035,0.1s-0.023,0.07-0.035,0.105
			s-0.061,0.104-0.146,0.205l-0.176,0.211l-0.34,0.645l-0.176,0.152c-0.055,0.047-0.098,0.148-0.129,0.305s-0.242,0.531-0.633,1.125
			l0.164,0.094l0.082,0.199l0.398,0.117c0.227-0.156,0.469-0.262,0.727-0.316l0.07-0.141c0.086,0.031,0.148,0.047,0.188,0.047
			c0.078,0,0.152-0.047,0.223-0.141l0.281-0.047l0.176-0.293h0.164l0.117-0.258c0.211,0,0.41-0.098,0.598-0.293V113.036z"/>
		<path fill="#FFFFFF" d="M347.832,118.813l-0.164,0.188c-0.039,0.055-0.145,0.297-0.316,0.727l-0.34,0.246l0.023,0.141h-0.316
			l-0.305,0.34h-0.41l-0.27,0.141c-0.078,0-0.164,0.047-0.258,0.141c-0.102-0.047-0.207-0.07-0.316-0.07
			c-0.086,0-0.188,0.023-0.305,0.07v0.141l-0.434-0.047l-0.34,0.047l-0.316-0.047l-0.047,0.07l-0.117-0.07l-0.211,0.07h-0.152
			c-0.109,0-0.227,0.02-0.352,0.059l-0.246-0.082l-0.188,0.129l-0.094-0.105l-0.176,0.105c-0.203-0.117-0.371-0.176-0.504-0.176
			c-0.047,0-0.117,0.023-0.211,0.07c-0.102-0.055-0.238-0.09-0.41-0.105l-0.527-0.059c-0.164,0-0.293,0.016-0.387,0.047
			l-0.047-0.094l-0.211,0.141c-0.047-0.063-0.105-0.094-0.176-0.094l-0.07-0.141c-0.492-0.023-0.738-0.375-0.738-1.055l0.504-0.07
			l-0.023-0.176l0.117-0.164l0.07,0.141h0.141v0.117l0.223-0.117c0.125,0.023,0.188,0.082,0.188,0.176
			c0,0.047-0.023,0.117-0.07,0.211l0.211,0.023v0.363l0.609,0.094l0.234,0.211l0.07-0.117l3.07-0.188l1.055-0.199l0.059-0.117
			l0.258-0.047l0.07-0.094c0.367-0.07,0.688-0.199,0.961-0.387l0.07,0.07l0.047-0.141l0.176-0.141l0.023-0.082l-0.117-0.164
			l0.047-0.211l-0.27-0.223l-0.047-0.188c-0.125-0.047-0.203-0.094-0.234-0.141l-0.105,0.047l-0.234-0.223h-0.094l-0.105-0.141
			h-0.234c-0.047-0.125-0.137-0.188-0.27-0.188l-0.164,0.023c-0.266,0-0.504-0.082-0.715-0.246h-0.246l-0.305-0.188l-0.152,0.094
			l-0.07-0.117h-0.164l-0.27-0.223l-0.715-0.305l-0.27-0.246l-0.809-0.141l-0.023-0.07l-0.68-0.48l-0.305-0.773l-0.246-0.375
			l-0.07-1.113l0.07-0.117c0-0.313,0.082-0.586,0.246-0.82c0.297-0.172,0.449-0.34,0.457-0.504l0.164,0.023
			c0.063-0.195,0.211-0.387,0.445-0.574l0.293-0.258l1.395-0.598l0.703-0.129l0.691-0.211l1.078,0.07l0.047,0.141h0.07
			c0.133,0,0.238,0.043,0.316,0.129v0.211l0.293,0.211c-0.086,0.375-0.129,0.586-0.129,0.633c0,0.141-0.07,0.211-0.211,0.211
			c-0.063,0-0.176-0.168-0.34-0.504l-0.645-0.047l-0.164,0.047c-0.25-0.188-0.395-0.281-0.434-0.281c-0.047,0-0.07,0.023-0.07,0.07
			l-0.223,0.164c-0.266,0-0.48,0.07-0.645,0.211c-0.297,0.055-0.504,0.152-0.621,0.293h-0.27l-0.199,0.152
			c-0.055,0.039-0.211,0.094-0.469,0.164l-0.094,0.117l-0.129,0.07l-0.328,0.316l-0.223,0.352c-0.227,0.148-0.344,0.246-0.352,0.293
			l-0.246,0.984l0.117,0.07v0.07c0,0.266,0.129,0.492,0.387,0.68v0.117l0.645,0.387h0.152l0.352,0.352h0.48l0.293,0.246l0.551,0.07
			l0.164,0.141l1.031,0.316c0,0.094,0.059,0.141,0.176,0.141c0.195,0,0.375,0.047,0.539,0.141s0.32,0.152,0.469,0.176l0.023,0.117
			l0.211,0.117h0.457l0.41,0.27c0.047,0.172,0.152,0.316,0.316,0.434l-0.023,0.07l0.117,0.164l0.211,0.047l-0.094,0.176
			C347.711,118.563,347.801,118.688,347.832,118.813z"/>
		<path fill="#FFFFFF" d="M358.273,118.813l-0.164,0.188c-0.039,0.055-0.145,0.297-0.316,0.727l-0.34,0.246l0.023,0.141h-0.316
			l-0.305,0.34h-0.41l-0.27,0.141c-0.078,0-0.164,0.047-0.258,0.141c-0.102-0.047-0.207-0.07-0.316-0.07
			c-0.086,0-0.188,0.023-0.305,0.07v0.141l-0.434-0.047l-0.34,0.047l-0.316-0.047l-0.047,0.07l-0.117-0.07l-0.211,0.07h-0.152
			c-0.109,0-0.227,0.02-0.352,0.059l-0.246-0.082l-0.188,0.129l-0.094-0.105l-0.176,0.105c-0.203-0.117-0.371-0.176-0.504-0.176
			c-0.047,0-0.117,0.023-0.211,0.07c-0.102-0.055-0.238-0.09-0.41-0.105l-0.527-0.059c-0.164,0-0.293,0.016-0.387,0.047
			l-0.047-0.094l-0.211,0.141c-0.047-0.063-0.105-0.094-0.176-0.094l-0.07-0.141c-0.492-0.023-0.738-0.375-0.738-1.055l0.504-0.07
			l-0.023-0.176l0.117-0.164l0.07,0.141h0.141v0.117l0.223-0.117c0.125,0.023,0.188,0.082,0.188,0.176
			c0,0.047-0.023,0.117-0.07,0.211l0.211,0.023v0.363l0.609,0.094l0.234,0.211l0.07-0.117l3.07-0.188l1.055-0.199l0.059-0.117
			l0.258-0.047l0.07-0.094c0.367-0.07,0.688-0.199,0.961-0.387l0.07,0.07l0.047-0.141l0.176-0.141l0.023-0.082l-0.117-0.164
			l0.047-0.211l-0.27-0.223l-0.047-0.188c-0.125-0.047-0.203-0.094-0.234-0.141l-0.105,0.047l-0.234-0.223h-0.094l-0.105-0.141
			h-0.234c-0.047-0.125-0.137-0.188-0.27-0.188l-0.164,0.023c-0.266,0-0.504-0.082-0.715-0.246h-0.246l-0.305-0.188l-0.152,0.094
			l-0.07-0.117h-0.164l-0.27-0.223l-0.715-0.305l-0.27-0.246l-0.809-0.141l-0.023-0.07l-0.68-0.48l-0.305-0.773l-0.246-0.375
			l-0.07-1.113l0.07-0.117c0-0.313,0.082-0.586,0.246-0.82c0.297-0.172,0.449-0.34,0.457-0.504l0.164,0.023
			c0.063-0.195,0.211-0.387,0.445-0.574l0.293-0.258l1.395-0.598l0.703-0.129l0.691-0.211l1.078,0.07l0.047,0.141h0.07
			c0.133,0,0.238,0.043,0.316,0.129v0.211l0.293,0.211c-0.086,0.375-0.129,0.586-0.129,0.633c0,0.141-0.07,0.211-0.211,0.211
			c-0.063,0-0.176-0.168-0.34-0.504l-0.645-0.047l-0.164,0.047c-0.25-0.188-0.395-0.281-0.434-0.281c-0.047,0-0.07,0.023-0.07,0.07
			l-0.223,0.164c-0.266,0-0.48,0.07-0.645,0.211c-0.297,0.055-0.504,0.152-0.621,0.293h-0.27l-0.199,0.152
			c-0.055,0.039-0.211,0.094-0.469,0.164l-0.094,0.117l-0.129,0.07l-0.328,0.316l-0.223,0.352c-0.227,0.148-0.344,0.246-0.352,0.293
			l-0.246,0.984l0.117,0.07v0.07c0,0.266,0.129,0.492,0.387,0.68v0.117l0.645,0.387h0.152l0.352,0.352h0.48l0.293,0.246l0.551,0.07
			l0.164,0.141l1.031,0.316c0,0.094,0.059,0.141,0.176,0.141c0.195,0,0.375,0.047,0.539,0.141s0.32,0.152,0.469,0.176l0.023,0.117
			l0.211,0.117h0.457l0.41,0.27c0.047,0.172,0.152,0.316,0.316,0.434l-0.023,0.07l0.117,0.164l0.211,0.047l-0.094,0.176
			C358.152,118.563,358.242,118.688,358.273,118.813z"/>
		<path fill="#FFFFFF" d="M374.996,118.192l-0.223,0.316l0.152,0.094c-0.094,0.148-0.199,0.27-0.316,0.363l-0.047,0.305
			l-0.293,0.023l-0.082,0.176c-0.023,0.047-0.156,0.148-0.398,0.305l-0.164-0.047c-0.094,0.102-0.316,0.176-0.668,0.223
			l-0.152-0.105l-0.023,0.199l-0.551-0.27c-0.031,0-0.117,0.059-0.258,0.176l-0.094-0.105l-0.727-0.07l-0.434,0.07l-0.211-0.188
			l-0.504,0.07l-0.246-0.211c-0.156,0.078-0.281,0.117-0.375,0.117c-0.109,0-0.23-0.039-0.363-0.117
			c-0.078,0.078-0.117,0.164-0.117,0.258c0,0.023,0.016,0.098,0.047,0.223s0.047,0.219,0.047,0.281c0,0.094-0.039,0.246-0.117,0.457
			l0.094,0.316l-0.199,0.234c0.055,0.336,0.082,0.648,0.082,0.938l-0.082,0.668l0.082,0.844l-0.223,0.316l0.141,0.457l-0.141,0.551
			l0.223,0.07v0.258c-0.117,0.023-0.176,0.105-0.176,0.246c0,0.031,0.016,0.109,0.047,0.234l0.07,0.023
			c-0.141,0.211-0.211,0.363-0.211,0.457l-0.047,1.898c-0.008,0.273-0.07,0.41-0.188,0.41c-0.039,0-0.152-0.016-0.34-0.047
			l0.023-0.457l-0.117-1.008l0.188-0.387l0.07-0.715l-0.141-0.82c0.125-0.086,0.188-0.172,0.188-0.258
			c0-0.047-0.047-0.223-0.141-0.527l0.164-0.316l-0.164-0.527l0.164-0.41l-0.07-0.434l0.223-0.141
			c-0.227-0.055-0.34-0.184-0.34-0.387c0-0.109,0.063-0.398,0.188-0.867l-0.141-0.281l0.094-0.387l-0.094-0.094l0.094-0.141
			l-0.094-0.867l0.141-1.148l-0.164-0.246l0.34-0.164l-0.176-0.047l-0.141-0.246l-0.141-0.07l0.117-0.07l0.023,0.07l0.07-0.117
			l-0.094-0.094l0.27,0.047l-0.105-0.152l0.105,0.023v-0.117c-0.117-0.055-0.176-0.109-0.176-0.164c0-0.109,0.023-0.215,0.07-0.316
			l-0.07-0.258c-0.094-0.023-0.141-0.066-0.141-0.129c0-0.031,0.039-0.047,0.117-0.047h0.047v-0.07h0.152l-0.176-0.211l0.07-0.316
			v-0.281l0.023-0.176l-0.094-0.387l0.094-0.422l-0.094-0.34l0.094-0.434l-0.094-0.164l0.023-0.387l-0.023-0.27l0.023-0.375
			c-0.086-0.086-0.141-0.27-0.164-0.551h-0.211l-0.199-0.129l-0.363,0.293v-0.07l-0.164,0.07h-0.34l-0.07,0.141l-0.281,0.023
			l-0.223,0.223l-0.281-0.047l-0.199,0.352l-0.305-0.141l-0.07,0.188c-0.32-0.18-0.48-0.355-0.48-0.527
			c0-0.047,0.043-0.096,0.129-0.146s0.129-0.104,0.129-0.158c0-0.039-0.023-0.121-0.07-0.246c0.289-0.141,0.57-0.211,0.844-0.211
			l0.07,0.047l0.211-0.223c0.063-0.063,0.277-0.172,0.645-0.328l0.082,0.07l0.211-0.246l0.527,0.035l0.387-0.129l0.07,0.047
			l0.094-0.504h0.223c0.148,0.32,0.34,0.531,0.574,0.633l0.094-0.176l0.164,0.129l0.129-0.082c0.266,0.023,0.494,0.09,0.686,0.199
			s0.369,0.18,0.533,0.211s0.293,0.098,0.387,0.199l0.141-0.105l0.047,0.176l0.316,0.164l0.023-0.07l0.211,0.07l0.176,0.234
			c0.063,0.086,0.145,0.16,0.246,0.223l0.398,0.234l0.047,0.129l0.293,0.094v0.07c0.195,0.102,0.305,0.246,0.328,0.434l0.27,0.164
			l0.188,0.434h0.117v0.223l0.141,0.141c0.039,0.047,0.082,0.184,0.129,0.41l0.188,0.047c0.023,0.297,0.129,0.504,0.316,0.621v0.316
			l0.188,0.258l-0.023,0.293c0,0.008,0.039,0.098,0.117,0.27s0.121,0.352,0.129,0.539l-0.117,0.047l0.047,0.199v0.188l0.117,0.023
			l-0.164,0.48L374.996,118.192z M374.352,117.454l-0.023-0.199l0.023-0.141l-0.129-0.434l0.105-0.234l-0.152-0.316l-0.023-0.293
			l-0.211-0.398l-0.094-0.316l-0.434-0.773l-0.246-0.211l-0.164-0.527l-0.316-0.117l-0.328-0.457v-0.094l-0.27-0.082l-0.234,0.023
			l-0.316-0.422l-0.164,0.047l-0.129-0.223l-0.352-0.07h-0.293l-0.047-0.094l-0.164,0.094l-0.129-0.141l-0.164,0.047l-0.094-0.164
			l-0.223,0.047l-0.762-0.129c-0.148,0.07-0.223,0.176-0.223,0.316c0,0.031,0.014,0.072,0.041,0.123s0.041,0.186,0.041,0.404
			l-0.082,0.504l0.176,0.527l0.188,0.176l-0.188,0.422l0.047,0.41l-0.141,0.867l0.094,0.188l-0.117,0.293l0.211,0.281l-0.117,0.082
			l0.023,0.305l0.188,0.117l-0.188,0.223l0.141,0.234l-0.234,0.316l0.094,0.48l-0.023,0.387l0.117,0.434l0.891-0.059l0.047,0.152
			c0.102-0.133,0.156-0.199,0.164-0.199s0.09,0.09,0.246,0.27c0.047-0.008,0.107-0.025,0.182-0.053s0.123-0.041,0.146-0.041
			c0.086,0,0.223,0.031,0.41,0.094c0.047-0.094,0.105-0.141,0.176-0.141c0.039,0,0.07,0.031,0.094,0.094h0.375l0.293,0.047
			l0.363-0.141l0.023,0.094c0.57-0.07,0.914-0.16,1.031-0.27h0.07c0.125,0,0.188-0.07,0.188-0.211l0.176,0.07l0.023-0.27
			l0.211-0.047l0.047-0.234l-0.07-0.246l0.176-0.141l-0.059-0.141L374.352,117.454z"/>
		<path fill="#FFFFFF" d="M386.117,120.454l-0.34,0.164l-0.07,0.211c-0.133,0.031-0.254,0.074-0.363,0.129l-0.117-0.082
			l-0.176,0.082l-0.375-0.457v-0.527l-0.176-0.152l0.047-0.738l-0.141-1.535l0.094-0.504l-0.164-0.27l0.211-0.117l-0.141-0.211
			l0.047-0.223l0.117-0.094l-0.023-0.293h0.129v-0.48l0.047-0.234c-0.063-0.016-0.137-0.09-0.223-0.223l-0.375,0.176
			c-0.102,0.195-0.207,0.324-0.316,0.387l-0.023,0.258l-0.27,0.117l-0.047,0.34l-0.164,0.117v0.176
			c-0.156,0.117-0.27,0.258-0.34,0.422l-0.164,0.105l-0.363,0.645l-0.574,0.574l-0.188,0.316l-0.504,0.527l-0.129,0.281l-0.691,0.48
			l-0.773,0.914l-0.258,0.07c-0.078,0.016-0.199,0.098-0.363,0.246h-0.07c-0.133,0-0.238-0.129-0.316-0.387
			c-0.602-0.234-0.918-0.57-0.949-1.008l0.188-0.117c-0.109-0.305-0.172-0.617-0.188-0.938l-0.129-0.094l0.082-0.129
			c0.031-0.047,0.055-0.127,0.07-0.24s0.039-0.271,0.07-0.475l0.164-0.891c-0.016-0.031-0.023-0.086-0.023-0.164
			c0-0.086,0.023-0.176,0.07-0.27c-0.031-0.117-0.047-0.203-0.047-0.258c0-0.063,0.016-0.145,0.047-0.246l0.094-0.023
			c0.133-0.18,0.199-0.332,0.199-0.457c0-0.078-0.025-0.141-0.076-0.188s-0.076-0.078-0.076-0.094c0-0.055,0.043-0.094,0.129-0.117
			c-0.117-0.023-0.176-0.074-0.176-0.152s0.082-0.117,0.246-0.117v-0.047c0-0.172,0.049-0.33,0.146-0.475s0.15-0.244,0.158-0.299
			l-0.164-0.047l0.316-0.504V113.2c0-0.336,0.109-0.625,0.328-0.867l-0.023-0.434l0.105-0.07c-0.055-0.07-0.082-0.148-0.082-0.234
			c0-0.047,0.051-0.07,0.152-0.07v-0.387c0.078-0.023,0.117-0.063,0.117-0.117s-0.008-0.098-0.023-0.129
			c0.047-0.07,0.156-0.199,0.328-0.387s0.285-0.344,0.34-0.469h0.07c0.18,0,0.27-0.043,0.27-0.129c0-0.031-0.023-0.07-0.07-0.117
			c0.32,0,0.488-0.063,0.504-0.188l0.434-0.223l1.242,0.105v0.094l1.008,0.211h0.094c0.148,0,0.223,0.066,0.223,0.199l0.117-0.047
			c0.039,0.141,0.129,0.211,0.27,0.211l0.117-0.023l0.211,0.211l0.504,0.129v0.211c0.227-0.148,0.516-0.277,0.867-0.387v0.387
			h-0.117l0.234,0.117l-0.047,0.047l0.188,0.609l-0.211,0.234l-0.094,0.398c-0.031,0.133-0.105,0.297-0.223,0.492l0.152,0.305
			c-0.016,0.023-0.061,0.086-0.135,0.188s-0.111,0.281-0.111,0.539c0.047,0.023,0.07,0.063,0.07,0.117l-0.047,0.199l0.023,0.164
			l-0.07,0.258l0.047,0.223l-0.141,0.164l0.047,0.527l-0.07,0.07l0.07,0.105l-0.07,0.07c0.016,0.016,0.023,0.047,0.023,0.094
			c0,0.07-0.023,0.141-0.07,0.211l0.07,0.152l-0.117,0.211c-0.063,0.039-0.094,0.152-0.094,0.34l0.094,0.305l-0.223,0.293
			c0.078,0.164,0.152,0.27,0.223,0.316c-0.117,0.164-0.215,0.473-0.293,0.926l0.199,0.047l-0.023,0.129
			c0.016,0.023,0.023,0.078,0.023,0.164c0,0.125-0.059,0.285-0.176,0.48h0.152l0.07,0.363l0.48,0.047l0.164,0.305
			c-0.047,0.031-0.07,0.059-0.07,0.082c0,0.063,0.078,0.141,0.234,0.234h-0.023c-0.031,0-0.047,0.008-0.047,0.023
			C385.918,120.271,385.984,120.345,386.117,120.454z M384.887,111.829l-0.141-0.434l-0.387-0.117l-0.668-0.598
			c-0.102-0.063-0.184-0.094-0.246-0.094c-0.039,0-0.102,0.016-0.188,0.047l-0.117-0.117h-0.387l-0.117-0.152l-0.27,0.105
			l-0.117-0.105l-0.199,0.059l-0.375-0.059c-0.18,0-0.461,0.09-0.844,0.27l0.047,0.094l-0.211,0.07l-0.047,0.094l-0.27,0.035v0.141
			c-0.156,0.094-0.34,0.348-0.551,0.762c-0.133,0.484-0.277,0.895-0.434,1.23l0.188,0.094l-0.305,0.27l0.094,0.188
			c-0.141,0.211-0.211,0.457-0.211,0.738v0.129l-0.176,0.258v0.41c-0.125,0.141-0.195,0.285-0.211,0.434l-0.094,0.094v0.434
			l-0.082,0.117c0,0.156-0.031,0.371-0.094,0.645l0.129,0.293c-0.102,0.039-0.215,0.137-0.34,0.293l0.094,0.188l-0.141,0.188
			l0.188,0.48l-0.211,0.293l0.023,0.574l-0.07,0.27l0.117,0.07l0.047,0.164c0.133,0.055,0.246,0.145,0.34,0.27l0.551-0.129
			c0.102-0.234,0.277-0.359,0.527-0.375l-0.047-0.176c0.242-0.063,0.369-0.096,0.381-0.1s0.029-0.049,0.053-0.135
			s0.094-0.168,0.211-0.246h0.047c0.047,0,0.07-0.031,0.07-0.094l0.434-0.504h-0.094l0.258-0.234
			c0.086-0.086,0.215-0.16,0.387-0.223l0.176-0.457c0.297-0.125,0.465-0.293,0.504-0.504h0.141l0.234-0.305l-0.047-0.199
			l0.223-0.047c-0.031-0.055-0.047-0.094-0.047-0.117s0.055-0.111,0.164-0.264s0.195-0.279,0.258-0.381l0.105,0.047
			c0.023-0.188,0.109-0.332,0.258-0.434c0.031-0.125,0.094-0.225,0.188-0.299s0.16-0.111,0.199-0.111h0.164l0.023-0.293
			c0.031-0.031,0.047-0.063,0.047-0.094c0-0.047-0.023-0.094-0.07-0.141c0.141-0.234,0.254-0.379,0.34-0.434l0.047-0.258
			l0.164-0.129l-0.047-0.211c0.094-0.148,0.152-0.293,0.176-0.434l0.211-0.211L384.887,111.829z"/>
		<path fill="#FFFFFF" d="M397.637,111.278l-0.07,0.293l-0.703,0.094l-0.457,0.34l-0.305,0.047l-0.387,0.234l-0.387,0.176
			c-0.188,0.164-0.34,0.266-0.457,0.305v0.117l-0.352,0.176l-0.246,0.387h-0.258l-0.129,0.375l-0.27,0.176
			c-0.109,0.063-0.195,0.148-0.258,0.258l-0.234,0.434c-0.18,0.094-0.285,0.309-0.316,0.645l-0.117-0.047l-0.047,0.152l-0.176,0.117
			l-0.164,0.41c-0.172,0.242-0.258,0.426-0.258,0.551l-0.223,0.094v0.504c-0.047,0.055-0.086,0.141-0.117,0.258l0.047,0.082
			l-0.234,0.094l0.07,0.188c-0.023,0.156-0.145,0.445-0.363,0.867l0.117,0.305l-0.234,0.387c0.031,0.156,0.047,0.277,0.047,0.363
			l-0.047,0.387l0.105,0.422c0.008,0.023,0.043,0.07,0.105,0.141l0.176,0.176c-0.102,0.195-0.199,0.332-0.293,0.41l-0.316-0.117
			l0.047,0.211l-0.527-0.094v-0.316l-0.07-0.211l0.07-0.387l-0.07-0.164l0.047-0.82l-0.047-0.551
			c-0.109-0.039-0.164-0.086-0.164-0.141c0-0.063,0.055-0.16,0.164-0.293v-0.352c0-0.188-0.008-0.324-0.023-0.41l0.094-0.117
			l-0.094-0.457l0.07-0.363l-0.07-0.223l0.07-0.645l-0.117-0.188l0.07-0.223l-0.141-0.48l0.047-0.375
			c0-0.102-0.016-0.246-0.047-0.434l0.07-0.117l-0.141-0.82l-0.176-0.117l0.176-0.41c-0.164-0.227-0.246-0.492-0.246-0.797v-0.328
			c-0.07-0.078-0.117-0.152-0.141-0.223c0.109-0.148,0.309-0.277,0.598-0.387l0.176,0.047c0.031,0.195,0.117,0.383,0.258,0.563
			l-0.047,0.598l0.234,1.816c0,0.117-0.047,0.223-0.141,0.316l0.117,0.504l-0.07,0.363l0.07,0.387l-0.047,0.305l0.176,0.363
			l-0.105,0.07l0.082,0.551l0.188,0.047l0.082-0.469c0.008-0.055,0.102-0.195,0.281-0.422c0.203-0.18,0.305-0.379,0.305-0.598
			v-0.141l0.152-0.07c0.023,0,0.043-0.029,0.059-0.088s0.043-0.088,0.082-0.088h0.07l0.141-0.469l0.363-0.246l0.023-0.141h0.164
			l-0.07-0.27l0.363-0.164l0.023-0.293l0.34-0.047c0.172-0.141,0.289-0.293,0.352-0.457l0.223-0.047
			c0.031-0.063,0.176-0.207,0.434-0.434c0.055,0,0.094-0.023,0.117-0.07l0.387-0.211l0.094-0.176l0.211-0.117
			c0.414-0.305,0.695-0.457,0.844-0.457h0.094c0.141,0,0.254-0.039,0.34-0.117l0.211,0.07c0.109-0.078,0.199-0.117,0.27-0.117
			C397.469,111.2,397.621,111.247,397.637,111.278z"/>
		<path fill="#FFFFFF" d="M400.543,111.665l1.652,0.07l1.582-0.07l0.387,0.023l0.164-0.023h0.867c0.164,0,0.246,0.07,0.246,0.211
			c0,0.164-0.129,0.27-0.387,0.316c-0.047-0.031-0.113-0.047-0.199-0.047c-0.109,0-0.211,0.039-0.305,0.117l-0.34-0.07l-0.645,0.023
			c-0.297,0.164-0.594,0.246-0.891,0.246l-0.457-0.082l-0.234,0.223h-0.223v-0.141l-0.41,0.188h-0.211l-0.07,0.211
			c-0.133-0.039-0.367-0.07-0.703-0.094c-0.023,0.094-0.063,0.141-0.117,0.141c-0.031,0-0.078-0.031-0.141-0.094l-0.34,0.047
			l-0.234,0.246l-0.07,1.172l0.047,0.703l-0.07,0.902l0.023,1.008l0.07,0.48v0.434l0.281,0.598v0.105c0,0.273,0.16,0.535,0.48,0.785
			l0.07,0.199l0.434,0.094l0.316,0.34l0.891,0.164l1.172-0.27l0.34,0.105l0.832-0.387l0.316,0.047
			c0.109,0.109,0.164,0.211,0.164,0.305c0,0.117-0.102,0.246-0.305,0.387l-0.176-0.07l-0.375,0.316l-0.797,0.094l-0.27,0.164
			l-0.281-0.164c-0.266,0.141-0.547,0.211-0.844,0.211l-0.48-0.094h-0.258l-0.867-0.504l-0.41-0.574l-0.281-0.316l-0.434-1.148
			l-0.199-1.078l0.105-0.434l-0.199-0.234l0.094-0.27l-0.094-0.434l0.246-0.188l-0.105-0.223l0.059-0.281l-0.105-0.316l0.047-0.457
			l-0.047-0.234l0.105-0.07v-0.867c-0.047-0.211-0.113-0.316-0.199-0.316c-0.055,0-0.102,0.031-0.141,0.094l-0.27-0.117
			l-0.375,0.094l-0.387-0.281h-0.199c-0.188,0-0.281-0.105-0.281-0.316l0.023-0.363l-0.164-0.117l0.094-0.211l0.352,0.047
			l0.27-0.047l0.387,0.117h1.008l0.047-0.551v-0.551l-0.164-0.41l0.188-0.141c0.031-0.094,0.047-0.152,0.047-0.176
			c0-0.102-0.063-0.188-0.188-0.258l0.047-0.938l-0.199-0.293l0.047-0.211c-0.156-0.031-0.234-0.094-0.234-0.188l0.164-0.633
			c0.133-0.172,0.207-0.281,0.223-0.328c0.477,0.234,0.715,0.371,0.715,0.41v0.023l-0.094,0.234
			c0.109,0.227,0.164,0.402,0.164,0.527v0.07c-0.047,0.125-0.07,0.238-0.07,0.34c0,0.078,0.023,0.141,0.07,0.188l-0.023,0.199
			l0.023,0.258l-0.211,0.34l0.141,0.598l-0.094,0.727l0.094,0.141l-0.141,0.211l0.188,0.598h0.434L400.543,111.665z"/>
		<path fill="#FFFFFF" d="M420.559,117.021c0.031,0.125-0.066,0.25-0.293,0.375l0.035,0.082c0,0.078-0.105,0.244-0.316,0.498
			s-0.316,0.447-0.316,0.58l-0.258,0.07c-0.008,0.328-0.152,0.52-0.434,0.574c-0.023,0.094-0.063,0.141-0.117,0.141h-0.047
			c-0.023,0.133-0.113,0.199-0.27,0.199l-0.141,0.281l-0.34,0.07l-0.281,0.188c-0.039,0.023-0.09,0.043-0.152,0.059l-0.527,0.094
			l-0.188-0.023l-0.176,0.023l-0.07-0.094l-0.211-0.023l-0.27-0.34h-0.117c-0.063-0.063-0.094-0.148-0.094-0.258
			c-0.258-0.281-0.387-0.5-0.387-0.656v-0.188l-0.164-0.316v-0.141l0.117-0.07l-0.094-0.34l-0.176-0.434l0.035-0.645l-0.246-0.387
			v-0.598c-0.227-1.164-0.34-1.875-0.34-2.133v-0.094c-0.031-0.125-0.047-0.215-0.047-0.27c0-0.063,0.008-0.109,0.023-0.141
			c-0.18-0.273-0.273-0.496-0.281-0.668l-0.117-0.105l-0.504,0.527l-0.246,0.34l-0.844,1.008l-0.328,0.598
			c-0.117,0.258-0.211,0.447-0.281,0.568s-0.227,0.299-0.469,0.533l0.07,0.223l-0.164,0.457l-0.188,0.023v0.211h-0.129l-0.457,0.551
			c-0.016,0.266-0.117,0.418-0.305,0.457c-0.07,0.102-0.133,0.25-0.188,0.445s-0.145,0.297-0.27,0.305l-0.094,0.094
			c-0.148,0.258-0.287,0.455-0.416,0.592s-0.311,0.291-0.545,0.463c-0.055,0.266-0.152,0.426-0.293,0.48l-0.023,0.117
			c-0.008,0.109-0.047,0.213-0.117,0.311s-0.262,0.186-0.574,0.264c-0.117-0.016-0.207-0.148-0.27-0.398s-0.156-0.402-0.281-0.457
			l-0.07-0.152l0.188-0.305l-0.023-0.293l0.117-0.117l-0.117-0.211l0.023-0.293l-0.188-0.527l0.164-0.316l-0.094-0.328
			c0.109-0.219,0.164-0.547,0.164-0.984v-0.129c0-0.039-0.047-0.133-0.141-0.281c0.125-0.102,0.188-0.199,0.188-0.293l-0.047-0.375
			l0.141-0.914l-0.094-0.176l0.023-0.375l-0.117-0.223l0.094-0.762l-0.047-0.27l0.07-0.434l-0.07-0.621l0.164-0.316
			c0.289,0.086,0.447,0.145,0.475,0.176s0.047,0.104,0.059,0.217s0.018,0.295,0.018,0.545l0.199,0.316l-0.07,0.457l0.094,0.984
			l-0.164,0.527l0.07,0.621v0.293l-0.223,0.352l0.152,0.504c-0.047,0.07-0.105,0.289-0.176,0.656l0.117,0.281
			c-0.133,0.43-0.195,0.742-0.188,0.938l0.023,0.867l0.07,0.117l0.293-0.141h0.234l0.129-0.527c0.18-0.055,0.289-0.145,0.328-0.27
			c0.023-0.188,0.145-0.281,0.363-0.281c0.023-0.18,0.078-0.301,0.164-0.363c0.063,0,0.137-0.113,0.223-0.34
			c0.164-0.164,0.293-0.332,0.387-0.504v-0.328h0.023c0.063,0,0.135-0.057,0.217-0.17s0.186-0.17,0.311-0.17
			c0.055-0.203,0.125-0.348,0.211-0.434l0.34-0.41l0.305-0.668c-0.031-0.125-0.047-0.207-0.047-0.246c0-0.047,0.023-0.07,0.07-0.07
			c0.32-0.211,0.48-0.418,0.48-0.621v-0.293c0.242-0.094,0.363-0.18,0.363-0.258c0-0.031-0.012-0.076-0.035-0.135
			s-0.035-0.096-0.035-0.111c0-0.078,0.031-0.117,0.094-0.117c0.055,0,0.117,0.023,0.188,0.07c0.117-0.43,0.297-0.645,0.539-0.645
			c0.047,0,0.117,0.016,0.211,0.047c0-0.227,0.07-0.41,0.211-0.551c0.031-0.102,0.219-0.223,0.563-0.363l0.117-0.188h0.094
			c0.133,0.18,0.246,0.293,0.34,0.34l0.047,0.164l0.117,0.047l0.047,0.457l0.316,0.188l-0.105,0.41l0.176,0.75v0.691l0.164,0.82
			l0.07,0.855l0.246,0.797l0.047,0.797c0.008,0.016,0.049,0.092,0.123,0.229s0.127,0.314,0.158,0.533l0.105,0.07v0.363l0.211,0.234
			l-0.047,0.176l0.164,0.094v0.117c0.148,0.094,0.277,0.141,0.387,0.141c0.133,0,0.254-0.031,0.363-0.094
			c0.055,0.031,0.094,0.047,0.117,0.047c0.07,0,0.141-0.063,0.211-0.188c0.227-0.023,0.34-0.086,0.34-0.188v-0.059
			c0.023-0.055,0.184-0.133,0.48-0.234c0.078-0.094,0.16-0.172,0.246-0.234l-0.023-0.059c0.016-0.039,0.045-0.084,0.088-0.135
			s0.119-0.121,0.229-0.211s0.184-0.174,0.223-0.252l0.129-0.258c0.102-0.141,0.254-0.367,0.457-0.68l0.328-0.164h0.223
			L420.559,117.021z"/>
		<path fill="#FFFFFF" d="M428.164,118.509c0.117,0.18,0.176,0.313,0.176,0.398c0,0.063-0.072,0.195-0.217,0.398
			s-0.256,0.418-0.334,0.645l-0.176,0.023l-0.258,0.504l-0.293,0.047l-0.645,0.434l-0.117,0.258l-0.199-0.023l-0.211,0.246h-0.34
			l-0.07,0.117l-0.164-0.023c-0.172,0-0.324,0.078-0.457,0.234l-0.152-0.117c-0.164,0.078-0.297,0.117-0.398,0.117
			c-0.18,0-0.324-0.039-0.434-0.117c-0.078,0.016-0.184,0.023-0.316,0.023l-0.141-0.117c-0.43-0.023-0.719-0.145-0.867-0.363v-0.293
			l-0.387-0.211l-0.094-0.246c-0.031-0.078-0.117-0.18-0.258-0.305v-0.188l-0.27-1.137l0.047-0.809l0.094-0.457v-0.504l0.129-0.434
			l-0.047-0.316c0.086-0.07,0.141-0.158,0.164-0.264s0.07-0.225,0.141-0.357c-0.031-0.141-0.063-0.34-0.094-0.598l0.211-0.176
			l-0.211-0.234c0.109-0.18,0.164-0.293,0.164-0.34l-0.117-0.715c0-0.172,0.023-0.34,0.07-0.504
			c0.094,0.141,0.199,0.211,0.316,0.211c0.063,0,0.215-0.031,0.457-0.094c-0.016-0.047-0.023-0.102-0.023-0.164
			c0-0.109,0.063-0.207,0.188-0.293c0.125-0.391,0.301-0.758,0.527-1.102c0.148-0.117,0.223-0.277,0.223-0.48h0.117l0.117-0.234
			l0.141-0.059c0.031-0.102,0.113-0.219,0.246-0.352c0.18-0.055,0.395-0.238,0.645-0.551c0.031,0.016,0.098,0.023,0.199,0.023
			c0.023,0,0.086-0.09,0.188-0.27c0.273-0.094,0.418-0.141,0.434-0.141c0.07,0,0.141,0.047,0.211,0.141l0.223-0.047l0.117,0.094
			h0.141c0.086,0.258,0.246,0.387,0.48,0.387h0.07c0.023,0.109,0.074,0.191,0.152,0.246l-0.105,0.047
			c0.273,0.133,0.41,0.441,0.41,0.926l-0.07,0.27l0.07,0.668l-0.117,0.105l-0.27,0.715l-0.48,0.598l-0.023,0.34
			c-0.57,0.469-1.039,0.789-1.406,0.961c-0.031,0.094-0.082,0.141-0.152,0.141c-0.031,0-0.094-0.016-0.188-0.047l-0.527,0.363
			h-0.316l-0.457,0.211l-0.199-0.117c-0.055-0.031-0.219-0.063-0.492-0.094c-0.242,0.227-0.363,0.52-0.363,0.879l-0.164,0.199
			c-0.031,0.297-0.07,0.504-0.117,0.621l-0.129,0.07l0.129,0.867l-0.129,0.117l0.023,0.27l-0.023,0.328
			c0,0.055,0.02,0.203,0.059,0.445s0.102,0.383,0.188,0.422c-0.039,0.109,0.037,0.242,0.229,0.398s0.396,0.266,0.615,0.328v0.141
			l0.621,0.094l0.891,0.047l0.598-0.07c0.242-0.172,0.418-0.277,0.527-0.316l0.188-0.281h0.223l0.023-0.117
			c0.344-0.117,0.533-0.197,0.568-0.24s0.053-0.084,0.053-0.123c0.047-0.094,0.117-0.141,0.211-0.141l0.07-0.152
			c0.352-0.055,0.57-0.285,0.656-0.691C427.961,118.54,428.055,118.509,428.164,118.509z M426.195,113.036
			c0.063-0.008,0.168-0.105,0.316-0.293l0.07-0.281c0.195-0.328,0.309-0.537,0.34-0.627s0.047-0.201,0.047-0.334
			s-0.055-0.367-0.164-0.703l-0.48-0.164c-0.125,0.031-0.207,0.047-0.246,0.047l-0.141-0.047c-0.117,0-0.199,0.07-0.246,0.211
			c-0.141,0-0.355,0.059-0.645,0.176l-0.07,0.164c-0.031-0.016-0.063-0.023-0.094-0.023c-0.023,0-0.045,0.004-0.064,0.012
			s-0.037,0.02-0.053,0.035s-0.031,0.033-0.047,0.053s-0.029,0.045-0.041,0.076s-0.023,0.064-0.035,0.1s-0.023,0.07-0.035,0.105
			s-0.061,0.104-0.146,0.205l-0.176,0.211l-0.34,0.645l-0.176,0.152c-0.055,0.047-0.098,0.148-0.129,0.305s-0.242,0.531-0.633,1.125
			l0.164,0.094l0.082,0.199l0.398,0.117c0.227-0.156,0.469-0.262,0.727-0.316l0.07-0.141c0.086,0.031,0.148,0.047,0.188,0.047
			c0.078,0,0.152-0.047,0.223-0.141l0.281-0.047l0.176-0.293h0.164l0.117-0.258c0.211,0,0.41-0.098,0.598-0.293V113.036z"/>
		<path fill="#FFFFFF" d="M438.512,111.278l-0.07,0.293l-0.703,0.094l-0.457,0.34l-0.305,0.047l-0.387,0.234l-0.387,0.176
			c-0.188,0.164-0.34,0.266-0.457,0.305v0.117l-0.352,0.176l-0.246,0.387h-0.258l-0.129,0.375l-0.27,0.176
			c-0.109,0.063-0.195,0.148-0.258,0.258L434,114.688c-0.18,0.094-0.285,0.309-0.316,0.645l-0.117-0.047l-0.047,0.152l-0.176,0.117
			l-0.164,0.41c-0.172,0.242-0.258,0.426-0.258,0.551l-0.223,0.094v0.504c-0.047,0.055-0.086,0.141-0.117,0.258l0.047,0.082
			l-0.234,0.094l0.07,0.188c-0.023,0.156-0.145,0.445-0.363,0.867l0.117,0.305l-0.234,0.387c0.031,0.156,0.047,0.277,0.047,0.363
			l-0.047,0.387l0.105,0.422c0.008,0.023,0.043,0.07,0.105,0.141l0.176,0.176c-0.102,0.195-0.199,0.332-0.293,0.41l-0.316-0.117
			l0.047,0.211l-0.527-0.094v-0.316l-0.07-0.211l0.07-0.387l-0.07-0.164l0.047-0.82l-0.047-0.551
			c-0.109-0.039-0.164-0.086-0.164-0.141c0-0.063,0.055-0.16,0.164-0.293v-0.352c0-0.188-0.008-0.324-0.023-0.41l0.094-0.117
			l-0.094-0.457l0.07-0.363l-0.07-0.223l0.07-0.645l-0.117-0.188l0.07-0.223l-0.141-0.48l0.047-0.375
			c0-0.102-0.016-0.246-0.047-0.434l0.07-0.117l-0.141-0.82l-0.176-0.117l0.176-0.41c-0.164-0.227-0.246-0.492-0.246-0.797v-0.328
			c-0.07-0.078-0.117-0.152-0.141-0.223c0.109-0.148,0.309-0.277,0.598-0.387l0.176,0.047c0.031,0.195,0.117,0.383,0.258,0.563
			l-0.047,0.598l0.234,1.816c0,0.117-0.047,0.223-0.141,0.316l0.117,0.504l-0.07,0.363l0.07,0.387l-0.047,0.305l0.176,0.363
			l-0.105,0.07l0.082,0.551l0.188,0.047l0.082-0.469c0.008-0.055,0.102-0.195,0.281-0.422c0.203-0.18,0.305-0.379,0.305-0.598
			v-0.141l0.152-0.07c0.023,0,0.043-0.029,0.059-0.088s0.043-0.088,0.082-0.088h0.07l0.141-0.469l0.363-0.246l0.023-0.141h0.164
			l-0.07-0.27l0.363-0.164l0.023-0.293l0.34-0.047c0.172-0.141,0.289-0.293,0.352-0.457l0.223-0.047
			c0.031-0.063,0.176-0.207,0.434-0.434c0.055,0,0.094-0.023,0.117-0.07l0.387-0.211l0.094-0.176l0.211-0.117
			c0.414-0.305,0.695-0.457,0.844-0.457h0.094c0.141,0,0.254-0.039,0.34-0.117l0.211,0.07c0.109-0.078,0.199-0.117,0.27-0.117
			C438.344,111.2,438.496,111.247,438.512,111.278z"/>
	</g>
</g>
</svg>
